<svg xmlns="http://www.w3.org/2000/svg" xmlns:xlink="http://www.w3.org/1999/xlink" id="visual" viewBox="0 0 160 961" width="160" height="961" version="1.1"><rect x="0" y="0" width="160" height="961" fill="#268187"/><path d="M0 707L20 667L40 729L60 721L80 752L100 721L120 751L140 766L160 696L160 962L140 962L120 962L100 962L80 962L60 962L40 962L20 962L0 962Z" fill="#1f5e5b"/><path d="M0 709L20 807L40 812L60 714L80 779L100 780L120 774L140 743L160 742L160 962L140 962L120 962L100 962L80 962L60 962L40 962L20 962L0 962Z" fill="#287874"/><path d="M0 803L20 767L40 800L60 772L80 810L100 842L120 834L140 848L160 831L160 962L140 962L120 962L100 962L80 962L60 962L40 962L20 962L0 962Z" fill="#31938e"/><path d="M0 873L20 873L40 866L60 845L80 840L100 910L120 839L140 891L160 880L160 962L140 962L120 962L100 962L80 962L60 962L40 962L20 962L0 962Z" fill="#3aafa9"/></svg>