<svg xmlns="http://www.w3.org/2000/svg" xmlns:xlink="http://www.w3.org/1999/xlink" id="visual" viewBox="0 0 160 961" width="160" height="961" version="1.1"><g stroke-width="1" stroke-linejoin="bevel"><path d="M86.1 474.3L87.7 476.8L111.7 465.8Z" fill="#42556a" stroke="#42556a"/><path d="M111.7 465.8L104.9 453.2L86.1 474.3Z" fill="#677786" stroke="#677786"/><path d="M87.7 476.8L111.7 487.3L111.7 465.8Z" fill="#374a61" stroke="#374a61"/><path d="M146.2 469.3L118.4 454.3L111.7 465.8Z" fill="#32445c" stroke="#32445c"/><path d="M111.7 465.8L118.4 454.3L104.9 453.2Z" fill="#546678" stroke="#546678"/><path d="M91.9 438.8L82.1 444.8L104.9 453.2Z" fill="#3d4f65" stroke="#3d4f65"/><path d="M104.9 453.2L82.1 444.8L86.1 474.3Z" fill="#607181" stroke="#607181"/><path d="M111.7 487.3L122.2 486.2L111.7 465.8Z" fill="#3d4f65" stroke="#3d4f65"/><path d="M114.4 437.8L91.9 438.8L104.9 453.2Z" fill="#5a6b7d" stroke="#5a6b7d"/><path d="M116.9 501.2L120.9 492.7L111.7 487.3Z" fill="#485a6e" stroke="#485a6e"/><path d="M111.7 487.3L120.9 492.7L122.2 486.2Z" fill="#607181" stroke="#607181"/><path d="M68.1 429.9L69.9 450.3L82.1 444.8Z" fill="#42556a" stroke="#42556a"/><path d="M82.1 444.8L69.9 450.3L86.1 474.3Z" fill="#42556a" stroke="#42556a"/><path d="M86.1 474.3L72.6 498.8L87.7 476.8Z" fill="#546678" stroke="#546678"/><path d="M118.4 454.3L114.4 437.8L104.9 453.2Z" fill="#42556a" stroke="#42556a"/><path d="M69.9 450.3L62.1 457.8L86.1 474.3Z" fill="#42556a" stroke="#42556a"/><path d="M107.2 514.7L116.9 501.2L111.7 487.3Z" fill="#6d7d8b" stroke="#6d7d8b"/><path d="M72.6 498.8L111.7 487.3L87.7 476.8Z" fill="#5a6b7d" stroke="#5a6b7d"/><path d="M55.8 483.3L72.6 498.8L86.1 474.3Z" fill="#374a61" stroke="#374a61"/><path d="M62.1 457.8L55.8 483.3L86.1 474.3Z" fill="#4e6073" stroke="#4e6073"/><path d="M72.6 498.8L107.2 514.7L111.7 487.3Z" fill="#607181" stroke="#607181"/><path d="M145.4 491.7L146.2 469.3L122.2 486.2Z" fill="#4e6073" stroke="#4e6073"/><path d="M122.2 486.2L146.2 469.3L111.7 465.8Z" fill="#6d7d8b" stroke="#6d7d8b"/><path d="M118.4 454.3L148.4 442.8L114.4 437.8Z" fill="#42556a" stroke="#42556a"/><path d="M145.4 491.7L122.2 486.2L120.9 492.7Z" fill="#5a6b7d" stroke="#5a6b7d"/><path d="M123.4 513.2L120.9 492.7L116.9 501.2Z" fill="#42556a" stroke="#42556a"/><path d="M62.1 457.8L50.8 476.7L55.8 483.3Z" fill="#3d4f65" stroke="#3d4f65"/><path d="M99.9 418.8L68.1 429.9L91.9 438.8Z" fill="#42556a" stroke="#42556a"/><path d="M91.9 438.8L68.1 429.9L82.1 444.8Z" fill="#374a61" stroke="#374a61"/><path d="M69.9 450.3L53.3 437.3L62.1 457.8Z" fill="#4e6073" stroke="#4e6073"/><path d="M62.1 457.8L47.3 472.7L50.8 476.7Z" fill="#4e6073" stroke="#4e6073"/><path d="M146.2 469.3L146.2 457.8L118.4 454.3Z" fill="#5a6b7d" stroke="#5a6b7d"/><path d="M108.9 418.3L99.9 418.8L114.4 437.8Z" fill="#4e6073" stroke="#4e6073"/><path d="M114.4 437.8L99.9 418.8L91.9 438.8Z" fill="#607181" stroke="#607181"/><path d="M99.9 418.8L67.6 429.3L68.1 429.9Z" fill="#607181" stroke="#607181"/><path d="M68.1 429.9L53.3 437.3L69.9 450.3Z" fill="#677786" stroke="#677786"/><path d="M146.2 457.8L146.2 453.8L118.4 454.3Z" fill="#3d4f65" stroke="#3d4f65"/><path d="M72.6 498.8L99.4 519.1L107.2 514.7Z" fill="#607181" stroke="#607181"/><path d="M118.7 408.9L108.9 418.3L114.4 437.8Z" fill="#485a6e" stroke="#485a6e"/><path d="M53.3 437.3L47.3 472.7L62.1 457.8Z" fill="#3d4f65" stroke="#3d4f65"/><path d="M65.1 517.7L72.6 498.8L48.8 510.7Z" fill="#3d4f65" stroke="#3d4f65"/><path d="M106.2 532.7L123.4 513.2L107.2 514.7Z" fill="#3d4f65" stroke="#3d4f65"/><path d="M107.2 514.7L123.4 513.2L116.9 501.2Z" fill="#4e6073" stroke="#4e6073"/><path d="M123.4 513.2L145.4 491.7L120.9 492.7Z" fill="#607181" stroke="#607181"/><path d="M67.6 429.3L53.3 437.3L68.1 429.9Z" fill="#374a61" stroke="#374a61"/><path d="M65.1 517.7L69.7 515.2L72.6 498.8Z" fill="#3d4f65" stroke="#3d4f65"/><path d="M72.6 498.8L69.7 515.2L99.4 519.1Z" fill="#4e6073" stroke="#4e6073"/><path d="M65.1 517.7L48.8 510.7L63.1 519.2Z" fill="#607181" stroke="#607181"/><path d="M160 444.3L148.4 442.8L146.2 453.8Z" fill="#32445c" stroke="#32445c"/><path d="M146.2 453.8L148.4 442.8L118.4 454.3Z" fill="#5a6b7d" stroke="#5a6b7d"/><path d="M160 444.3L146.2 453.8L146.2 457.8Z" fill="#546678" stroke="#546678"/><path d="M160 477.2L146.2 457.8L146.2 469.3Z" fill="#3d4f65" stroke="#3d4f65"/><path d="M72.6 498.8L55.8 483.3L48.8 510.7Z" fill="#546678" stroke="#546678"/><path d="M69.6 521.2L102.7 528.2L99.4 519.1Z" fill="#42556a" stroke="#42556a"/><path d="M69.6 521.2L99.4 519.1L69.7 515.2Z" fill="#3d4f65" stroke="#3d4f65"/><path d="M99.4 519.1L102.7 528.2L107.2 514.7Z" fill="#607181" stroke="#607181"/><path d="M65.1 517.7L69.6 521.2L69.7 515.2Z" fill="#32445c" stroke="#32445c"/><path d="M108.9 418.3L102.1 407.3L99.9 418.8Z" fill="#485a6e" stroke="#485a6e"/><path d="M99.9 418.8L57.9 403.9L67.6 429.3Z" fill="#546678" stroke="#546678"/><path d="M67.6 429.3L54.3 425.8L53.3 437.3Z" fill="#374a61" stroke="#374a61"/><path d="M118.7 408.9L102.1 407.3L108.9 418.3Z" fill="#4e6073" stroke="#4e6073"/><path d="M57.9 403.9L54.3 425.8L67.6 429.3Z" fill="#42556a" stroke="#42556a"/><path d="M53.3 437.3L14.8 463.8L47.3 472.7Z" fill="#677786" stroke="#677786"/><path d="M54.3 425.8L48.6 431.8L53.3 437.3Z" fill="#546678" stroke="#546678"/><path d="M42.3 498.8L55.8 483.3L50.8 476.7Z" fill="#32445c" stroke="#32445c"/><path d="M65.1 517.7L63.1 519.2L69.6 521.2Z" fill="#374a61" stroke="#374a61"/><path d="M145.4 491.7L160 477.2L146.2 469.3Z" fill="#6d7d8b" stroke="#6d7d8b"/><path d="M134.2 403.9L118.7 408.9L114.4 437.8Z" fill="#4e6073" stroke="#4e6073"/><path d="M30.8 484.2L50.8 476.7L47.3 472.7Z" fill="#5a6b7d" stroke="#5a6b7d"/><path d="M30.8 484.2L42.3 498.8L50.8 476.7Z" fill="#3d4f65" stroke="#3d4f65"/><path d="M101.4 548.2L106.2 532.7L102.7 528.2Z" fill="#374a61" stroke="#374a61"/><path d="M102.7 528.2L106.2 532.7L107.2 514.7Z" fill="#6d7d8b" stroke="#6d7d8b"/><path d="M160 520.7L160 499.8L145.4 491.7Z" fill="#546678" stroke="#546678"/><path d="M145.4 491.7L160 499.8L160 477.2Z" fill="#677786" stroke="#677786"/><path d="M42.3 498.8L48.8 510.7L55.8 483.3Z" fill="#677786" stroke="#677786"/><path d="M160 477.2L160 444.3L146.2 457.8Z" fill="#485a6e" stroke="#485a6e"/><path d="M148.4 442.8L134.2 403.9L114.4 437.8Z" fill="#3d4f65" stroke="#3d4f65"/><path d="M160 438.3L156.4 434.3L148.4 442.8Z" fill="#3d4f65" stroke="#3d4f65"/><path d="M160 444.3L160 438.3L148.4 442.8Z" fill="#607181" stroke="#607181"/><path d="M160 520.7L145.4 491.7L123.4 513.2Z" fill="#374a61" stroke="#374a61"/><path d="M16.6 474.3L30.8 484.2L47.3 472.7Z" fill="#3d4f65" stroke="#3d4f65"/><path d="M42.3 498.8L44.6 514.7L48.8 510.7Z" fill="#32445c" stroke="#32445c"/><path d="M36.1 518.2L44.6 514.7L42.3 498.8Z" fill="#4e6073" stroke="#4e6073"/><path d="M48.8 510.7L44.6 514.7L63.1 519.2Z" fill="#677786" stroke="#677786"/><path d="M63.1 519.2L66.1 537.6L69.6 521.2Z" fill="#6d7d8b" stroke="#6d7d8b"/><path d="M69.6 521.2L66.1 537.6L102.7 528.2Z" fill="#374a61" stroke="#374a61"/><path d="M160 419.9L134.2 403.9L156.4 434.3Z" fill="#42556a" stroke="#42556a"/><path d="M156.4 434.3L134.2 403.9L148.4 442.8Z" fill="#4e6073" stroke="#4e6073"/><path d="M118.7 408.9L105.4 383.9L102.1 407.3Z" fill="#42556a" stroke="#42556a"/><path d="M74.6 385.9L57.9 403.9L102.1 407.3Z" fill="#6d7d8b" stroke="#6d7d8b"/><path d="M102.1 407.3L57.9 403.9L99.9 418.8Z" fill="#5a6b7d" stroke="#5a6b7d"/><path d="M54.3 425.8L10.8 401.4L48.6 431.8Z" fill="#677786" stroke="#677786"/><path d="M14.8 463.8L16.6 474.3L47.3 472.7Z" fill="#6d7d8b" stroke="#6d7d8b"/><path d="M54.1 543.7L66.1 537.6L63.1 519.2Z" fill="#3d4f65" stroke="#3d4f65"/><path d="M101.4 548.2L109.7 544.7L106.2 532.7Z" fill="#485a6e" stroke="#485a6e"/><path d="M135.2 538.2L136.7 536.1L123.4 513.2Z" fill="#4e6073" stroke="#4e6073"/><path d="M135.2 538.2L123.4 513.2L106.2 532.7Z" fill="#6d7d8b" stroke="#6d7d8b"/><path d="M160 438.3L160 419.9L156.4 434.3Z" fill="#42556a" stroke="#42556a"/><path d="M109.7 544.7L135.2 538.2L106.2 532.7Z" fill="#374a61" stroke="#374a61"/><path d="M22.6 511.7L36.1 518.2L42.3 498.8Z" fill="#6d7d8b" stroke="#6d7d8b"/><path d="M44.6 514.7L37.3 521.7L63.1 519.2Z" fill="#6d7d8b" stroke="#6d7d8b"/><path d="M66.1 537.6L101.4 548.2L102.7 528.2Z" fill="#32445c" stroke="#32445c"/><path d="M109.7 544.7L127.9 568.7L135.2 538.2Z" fill="#374a61" stroke="#374a61"/><path d="M136.7 536.1L160 520.7L123.4 513.2Z" fill="#4e6073" stroke="#4e6073"/><path d="M160 522.2L160 520.7L136.7 536.1Z" fill="#6d7d8b" stroke="#6d7d8b"/><path d="M107.4 557.1L102.9 549.1L101.4 548.2Z" fill="#4e6073" stroke="#4e6073"/><path d="M101.4 548.2L102.9 549.1L109.7 544.7Z" fill="#42556a" stroke="#42556a"/><path d="M36.1 518.2L37.3 521.7L44.6 514.7Z" fill="#546678" stroke="#546678"/><path d="M160 526.7L160 522.2L136.7 536.1Z" fill="#4e6073" stroke="#4e6073"/><path d="M14.8 463.8L53.3 437.3L48.6 431.8Z" fill="#546678" stroke="#546678"/><path d="M30.8 484.2L22.6 511.7L42.3 498.8Z" fill="#546678" stroke="#546678"/><path d="M36.1 518.2L31.3 528.2L37.3 521.7Z" fill="#4e6073" stroke="#4e6073"/><path d="M13.3 433.3L14.8 463.8L48.6 431.8Z" fill="#485a6e" stroke="#485a6e"/><path d="M124.7 379.4L118.7 408.9L134.2 403.9Z" fill="#374a61" stroke="#374a61"/><path d="M124.7 379.4L105.4 383.9L118.7 408.9Z" fill="#677786" stroke="#677786"/><path d="M160 562.1L160 526.7L136.7 536.1Z" fill="#42556a" stroke="#42556a"/><path d="M105.4 383.9L104.2 383.5L102.1 407.3Z" fill="#6d7d8b" stroke="#6d7d8b"/><path d="M104.2 383.5L74.6 385.9L102.1 407.3Z" fill="#32445c" stroke="#32445c"/><path d="M160 405.8L142.7 394.3L134.2 403.9Z" fill="#374a61" stroke="#374a61"/><path d="M105.4 383.9L104.9 373.9L104.2 383.5Z" fill="#485a6e" stroke="#485a6e"/><path d="M160 438.3L162.2 409.4L160 419.9Z" fill="#677786" stroke="#677786"/><path d="M160 419.9L160 405.8L134.2 403.9Z" fill="#677786" stroke="#677786"/><path d="M160 444.3L162.2 409.4L160 438.3Z" fill="#3d4f65" stroke="#3d4f65"/><path d="M160 477.2L162.2 409.4L160 444.3Z" fill="#6d7d8b" stroke="#6d7d8b"/><path d="M179.2 315.6L162.2 409.4L160 477.2Z" fill="#607181" stroke="#607181"/><path d="M179.2 315.6L160 477.2L179.2 634.5Z" fill="#607181" stroke="#607181"/><path d="M160 477.2L160 499.8L179.2 634.5Z" fill="#3d4f65" stroke="#3d4f65"/><path d="M160 499.8L160 520.7L179.2 634.5Z" fill="#4e6073" stroke="#4e6073"/><path d="M0 497.2L30.8 484.2L16.6 474.3Z" fill="#546678" stroke="#546678"/><path d="M0 497.2L22.6 511.7L30.8 484.2Z" fill="#3d4f65" stroke="#3d4f65"/><path d="M31.3 528.2L54.1 543.7L37.3 521.7Z" fill="#42556a" stroke="#42556a"/><path d="M37.3 521.7L54.1 543.7L63.1 519.2Z" fill="#546678" stroke="#546678"/><path d="M66.1 537.6L67.7 560.7L101.4 548.2Z" fill="#3d4f65" stroke="#3d4f65"/><path d="M162.2 409.4L160 405.8L160 419.9Z" fill="#374a61" stroke="#374a61"/><path d="M95.4 571.7L107.4 557.1L101.4 548.2Z" fill="#42556a" stroke="#42556a"/><path d="M102.9 549.1L107.4 557.1L109.7 544.7Z" fill="#546678" stroke="#546678"/><path d="M135.2 538.2L160 562.1L136.7 536.1Z" fill="#485a6e" stroke="#485a6e"/><path d="M74.6 385.9L54.1 390.4L57.9 403.9Z" fill="#3d4f65" stroke="#3d4f65"/><path d="M9.8 425.8L13.3 433.3L48.6 431.8Z" fill="#4e6073" stroke="#4e6073"/><path d="M24.6 521.1L31.3 528.2L36.1 518.2Z" fill="#6d7d8b" stroke="#6d7d8b"/><path d="M22.6 511.7L24.6 521.1L36.1 518.2Z" fill="#5a6b7d" stroke="#5a6b7d"/><path d="M104.2 383.5L83.1 377.9L74.6 385.9Z" fill="#374a61" stroke="#374a61"/><path d="M74.6 385.9L66.7 375.9L54.1 390.4Z" fill="#3d4f65" stroke="#3d4f65"/><path d="M9.8 425.8L48.6 431.8L10.8 401.4Z" fill="#3d4f65" stroke="#3d4f65"/><path d="M150.2 380.3L124.7 379.4L142.7 394.3Z" fill="#6d7d8b" stroke="#6d7d8b"/><path d="M142.7 394.3L124.7 379.4L134.2 403.9Z" fill="#42556a" stroke="#42556a"/><path d="M104.2 383.5L104.9 373.9L83.1 377.9Z" fill="#485a6e" stroke="#485a6e"/><path d="M124.7 379.4L104.9 373.9L105.4 383.9Z" fill="#607181" stroke="#607181"/><path d="M54.6 562.6L67.7 560.7L54.1 543.7Z" fill="#32445c" stroke="#32445c"/><path d="M54.1 543.7L67.7 560.7L66.1 537.6Z" fill="#42556a" stroke="#42556a"/><path d="M77.3 363.9L66.7 375.9L83.1 377.9Z" fill="#374a61" stroke="#374a61"/><path d="M83.1 377.9L66.7 375.9L74.6 385.9Z" fill="#374a61" stroke="#374a61"/><path d="M10.8 401.4L54.3 425.8L57.9 403.9Z" fill="#546678" stroke="#546678"/><path d="M1.8 429.3L9.8 425.8L0 428.3Z" fill="#485a6e" stroke="#485a6e"/><path d="M0 445.8L0 464.3L14.8 463.8Z" fill="#546678" stroke="#546678"/><path d="M0 445.8L14.8 463.8L13.3 433.3Z" fill="#374a61" stroke="#374a61"/><path d="M14.8 463.8L0 464.3L16.6 474.3Z" fill="#374a61" stroke="#374a61"/><path d="M22.6 511.7L9.6 519.2L24.6 521.1Z" fill="#42556a" stroke="#42556a"/><path d="M0 464.3L0 484.2L16.6 474.3Z" fill="#546678" stroke="#546678"/><path d="M0 436.9L0 445.8L13.3 433.3Z" fill="#546678" stroke="#546678"/><path d="M160 366.5L150.2 380.3L160 405.8Z" fill="#485a6e" stroke="#485a6e"/><path d="M160 405.8L150.2 380.3L142.7 394.3Z" fill="#485a6e" stroke="#485a6e"/><path d="M124.7 379.4L125.9 364.4L104.9 373.9Z" fill="#5a6b7d" stroke="#5a6b7d"/><path d="M24.6 521.1L0 537.1L31.3 528.2Z" fill="#42556a" stroke="#42556a"/><path d="M34.8 556.1L49.3 558.2L54.1 543.7Z" fill="#3d4f65" stroke="#3d4f65"/><path d="M0 509.8L9.6 519.2L22.6 511.7Z" fill="#4e6073" stroke="#4e6073"/><path d="M34.8 556.1L54.1 543.7L31.3 528.2Z" fill="#607181" stroke="#607181"/><path d="M0 484.2L0 497.2L16.6 474.3Z" fill="#42556a" stroke="#42556a"/><path d="M1.8 429.3L0 436.9L13.3 433.3Z" fill="#42556a" stroke="#42556a"/><path d="M89.3 574.1L101.4 548.2L67.7 560.7Z" fill="#6d7d8b" stroke="#6d7d8b"/><path d="M89.3 574.1L95.4 571.7L101.4 548.2Z" fill="#6d7d8b" stroke="#6d7d8b"/><path d="M107.4 557.1L127.9 568.7L109.7 544.7Z" fill="#5a6b7d" stroke="#5a6b7d"/><path d="M49.3 558.2L54.6 562.6L54.1 543.7Z" fill="#6d7d8b" stroke="#6d7d8b"/><path d="M10.8 401.4L57.9 403.9L54.1 390.4Z" fill="#32445c" stroke="#32445c"/><path d="M9.8 425.8L1.8 429.3L13.3 433.3Z" fill="#677786" stroke="#677786"/><path d="M120.2 578.1L127.9 568.7L107.4 557.1Z" fill="#607181" stroke="#607181"/><path d="M66.7 375.9L43.6 378.5L54.1 390.4Z" fill="#42556a" stroke="#42556a"/><path d="M10.8 401.4L0 428.3L9.8 425.8Z" fill="#3d4f65" stroke="#3d4f65"/><path d="M1.8 429.3L-3.4 432.9L0 436.9Z" fill="#6d7d8b" stroke="#6d7d8b"/><path d="M56.3 585.6L89.3 574.1L67.7 560.7Z" fill="#677786" stroke="#677786"/><path d="M107.7 581.6L120.2 578.1L107.4 557.1Z" fill="#6d7d8b" stroke="#6d7d8b"/><path d="M82.3 360.5L77.3 363.9L83.1 377.9Z" fill="#6d7d8b" stroke="#6d7d8b"/><path d="M66.7 375.9L42.6 373.4L43.6 378.5Z" fill="#677786" stroke="#677786"/><path d="M82.3 360.5L83.1 377.9L104.9 373.9Z" fill="#5a6b7d" stroke="#5a6b7d"/><path d="M0 497.2L0 509.8L22.6 511.7Z" fill="#3d4f65" stroke="#3d4f65"/><path d="M150.2 380.3L125.9 364.4L124.7 379.4Z" fill="#6d7d8b" stroke="#6d7d8b"/><path d="M0 428.3L-3.4 432.9L1.8 429.3Z" fill="#32445c" stroke="#32445c"/><path d="M0 436.9L-3.4 432.9L0 445.8Z" fill="#42556a" stroke="#42556a"/><path d="M0 445.8L-3.4 432.9L0 464.3Z" fill="#3d4f65" stroke="#3d4f65"/><path d="M0 464.3L-18.2 500.2L0 484.2Z" fill="#546678" stroke="#546678"/><path d="M0 484.2L-18.2 500.2L0 497.2Z" fill="#4e6073" stroke="#4e6073"/><path d="M0 497.2L-18.2 500.2L0 509.8Z" fill="#32445c" stroke="#32445c"/><path d="M29.8 554.1L34.8 556.1L31.3 528.2Z" fill="#3d4f65" stroke="#3d4f65"/><path d="M49.3 558.2L34.8 556.1L54.6 562.6Z" fill="#485a6e" stroke="#485a6e"/><path d="M99.1 586.1L95.4 571.7L89.3 574.1Z" fill="#677786" stroke="#677786"/><path d="M29.8 554.1L31.3 528.2L0 537.1Z" fill="#42556a" stroke="#42556a"/><path d="M116.4 348.4L82.3 360.5L104.9 373.9Z" fill="#32445c" stroke="#32445c"/><path d="M43.8 340.5L42.6 373.4L66.7 375.9Z" fill="#6d7d8b" stroke="#6d7d8b"/><path d="M0 537.1L24.6 521.1L9.6 519.2Z" fill="#607181" stroke="#607181"/><path d="M43.8 340.5L66.7 375.9L77.3 363.9Z" fill="#677786" stroke="#677786"/><path d="M43.6 378.5L10.8 401.4L54.1 390.4Z" fill="#485a6e" stroke="#485a6e"/><path d="M13.3 379.9L10.8 401.4L43.6 378.5Z" fill="#677786" stroke="#677786"/><path d="M0 428.3L-13.2 393.9L-3.4 432.9Z" fill="#3d4f65" stroke="#3d4f65"/><path d="M107.7 581.6L107.4 557.1L95.4 571.7Z" fill="#4e6073" stroke="#4e6073"/><path d="M143.2 587.6L160 562.1L127.9 568.7Z" fill="#5a6b7d" stroke="#5a6b7d"/><path d="M127.9 568.7L160 562.1L135.2 538.2Z" fill="#4e6073" stroke="#4e6073"/><path d="M179.2 634.5L160 520.7L160 522.2Z" fill="#4e6073" stroke="#4e6073"/><path d="M99.1 586.1L107.7 581.6L95.4 571.7Z" fill="#677786" stroke="#677786"/><path d="M99.1 586.1L89.3 574.1L73.1 602.5Z" fill="#485a6e" stroke="#485a6e"/><path d="M-18.2 500.2L0 528.7L0 509.8Z" fill="#374a61" stroke="#374a61"/><path d="M0 509.8L0 528.7L9.6 519.2Z" fill="#42556a" stroke="#42556a"/><path d="M56.3 585.6L67.7 560.7L54.6 562.6Z" fill="#677786" stroke="#677786"/><path d="M142.4 596.5L143.2 587.6L127.2 601Z" fill="#32445c" stroke="#32445c"/><path d="M56.3 585.6L54.6 562.6L34.8 556.1Z" fill="#5a6b7d" stroke="#5a6b7d"/><path d="M162.2 409.4L160 366.5L160 405.8Z" fill="#677786" stroke="#677786"/><path d="M150.2 380.3L145.4 354.9L125.9 364.4Z" fill="#485a6e" stroke="#485a6e"/><path d="M125.9 364.4L116.4 348.4L104.9 373.9Z" fill="#677786" stroke="#677786"/><path d="M-18.2 500.2L0 537.1L0 528.7Z" fill="#677786" stroke="#677786"/><path d="M0 528.7L0 537.1L9.6 519.2Z" fill="#607181" stroke="#607181"/><path d="M-3.4 432.9L-18.2 500.2L0 464.3Z" fill="#6d7d8b" stroke="#6d7d8b"/><path d="M145.4 354.9L116.4 348.4L125.9 364.4Z" fill="#6d7d8b" stroke="#6d7d8b"/><path d="M13.8 352.5L13.3 379.9L42.6 373.4Z" fill="#6d7d8b" stroke="#6d7d8b"/><path d="M83.7 339L77.3 363.9L82.3 360.5Z" fill="#4e6073" stroke="#4e6073"/><path d="M42.6 373.4L13.3 379.9L43.6 378.5Z" fill="#607181" stroke="#607181"/><path d="M10.8 401.4L-13.2 393.9L0 428.3Z" fill="#42556a" stroke="#42556a"/><path d="M160 366.5L145.4 354.9L150.2 380.3Z" fill="#4e6073" stroke="#4e6073"/><path d="M56.3 585.6L34.8 556.1L17.3 588.1Z" fill="#607181" stroke="#607181"/><path d="M53.9 598.6L56.3 585.6L17.3 588.1Z" fill="#485a6e" stroke="#485a6e"/><path d="M-18.2 500.2L0 545.7L0 537.1Z" fill="#374a61" stroke="#374a61"/><path d="M0 537.1L0 545.7L29.8 554.1Z" fill="#42556a" stroke="#42556a"/><path d="M162.2 352.9L160 359.4L160 366.5Z" fill="#6d7d8b" stroke="#6d7d8b"/><path d="M160 366.5L160 359.4L145.4 354.9Z" fill="#546678" stroke="#546678"/><path d="M148.4 592.6L143.2 587.6L142.4 596.5Z" fill="#4e6073" stroke="#4e6073"/><path d="M143.2 587.6L120.2 578.1L127.2 601Z" fill="#374a61" stroke="#374a61"/><path d="M120.2 578.1L143.2 587.6L127.9 568.7Z" fill="#4e6073" stroke="#4e6073"/><path d="M13.3 379.9L0 384.4L10.8 401.4Z" fill="#32445c" stroke="#32445c"/><path d="M-3.4 432.9L-13.2 393.9L-18.2 500.2Z" fill="#5a6b7d" stroke="#5a6b7d"/><path d="M100.1 336.5L82.3 360.5L116.4 348.4Z" fill="#6d7d8b" stroke="#6d7d8b"/><path d="M100.1 336.5L87.4 339.5L82.3 360.5Z" fill="#6d7d8b" stroke="#6d7d8b"/><path d="M13.3 379.9L13.8 352.5L0 384.4Z" fill="#42556a" stroke="#42556a"/><path d="M87.4 339.5L83.7 339L82.3 360.5Z" fill="#6d7d8b" stroke="#6d7d8b"/><path d="M160 330.9L120.4 340L145.4 354.9Z" fill="#4e6073" stroke="#4e6073"/><path d="M145.4 354.9L120.4 340L116.4 348.4Z" fill="#6d7d8b" stroke="#6d7d8b"/><path d="M87.4 339.5L89.7 327.5L83.7 339Z" fill="#42556a" stroke="#42556a"/><path d="M53.9 598.6L65.6 595.1L56.3 585.6Z" fill="#5a6b7d" stroke="#5a6b7d"/><path d="M56.3 585.6L65.6 595.1L89.3 574.1Z" fill="#3d4f65" stroke="#3d4f65"/><path d="M105.1 336L100.1 336.5L116.4 348.4Z" fill="#32445c" stroke="#32445c"/><path d="M179.2 315.6L162.2 352.9L160 366.5Z" fill="#5a6b7d" stroke="#5a6b7d"/><path d="M160 359.4L162.2 352.9L145.4 354.9Z" fill="#485a6e" stroke="#485a6e"/><path d="M120.4 340L105.1 336L116.4 348.4Z" fill="#42556a" stroke="#42556a"/><path d="M104.9 330L93.7 335L100.1 336.5Z" fill="#546678" stroke="#546678"/><path d="M100.1 336.5L93.7 335L87.4 339.5Z" fill="#6d7d8b" stroke="#6d7d8b"/><path d="M120.2 578.1L107.7 581.6L127.2 601Z" fill="#6d7d8b" stroke="#6d7d8b"/><path d="M143.2 587.6L148.4 592.6L160 562.1Z" fill="#6d7d8b" stroke="#6d7d8b"/><path d="M0 384.4L-13.2 393.9L10.8 401.4Z" fill="#4e6073" stroke="#4e6073"/><path d="M127.2 601L107.7 581.6L99.1 586.1Z" fill="#42556a" stroke="#42556a"/><path d="M125.2 613.5L127.2 601L99.1 586.1Z" fill="#32445c" stroke="#32445c"/><path d="M61.9 608.1L73.1 602.5L65.6 595.1Z" fill="#546678" stroke="#546678"/><path d="M65.6 595.1L73.1 602.5L89.3 574.1Z" fill="#6d7d8b" stroke="#6d7d8b"/><path d="M17.3 588.1L34.8 556.1L29.8 554.1Z" fill="#677786" stroke="#677786"/><path d="M120.4 340L104.9 330L105.1 336Z" fill="#3d4f65" stroke="#3d4f65"/><path d="M105.1 336L104.9 330L100.1 336.5Z" fill="#485a6e" stroke="#485a6e"/><path d="M49.6 332L77.3 363.9L83.7 339Z" fill="#374a61" stroke="#374a61"/><path d="M112.9 318L104.9 330L120.4 340Z" fill="#607181" stroke="#607181"/><path d="M89.7 327.5L87.4 339.5L93.7 335Z" fill="#3d4f65" stroke="#3d4f65"/><path d="M49.6 332L43.8 340.5L77.3 363.9Z" fill="#32445c" stroke="#32445c"/><path d="M0 384.4L0 347.5L-13.2 393.9Z" fill="#677786" stroke="#677786"/><path d="M104.9 330L89.7 327.5L93.7 335Z" fill="#374a61" stroke="#374a61"/><path d="M162.4 609L160 595.6L142.4 596.5Z" fill="#374a61" stroke="#374a61"/><path d="M142.4 596.5L160 595.6L148.4 592.6Z" fill="#32445c" stroke="#32445c"/><path d="M148.4 592.6L160 595.6L160 562.1Z" fill="#4e6073" stroke="#4e6073"/><path d="M160 562.1L179.2 634.5L160 526.7Z" fill="#42556a" stroke="#42556a"/><path d="M23.3 345.4L13.8 352.5L42.6 373.4Z" fill="#42556a" stroke="#42556a"/><path d="M43.8 340.5L23.3 345.4L42.6 373.4Z" fill="#546678" stroke="#546678"/><path d="M35.1 321.5L23.3 345.4L43.8 340.5Z" fill="#5a6b7d" stroke="#5a6b7d"/><path d="M89.7 327.5L71.9 326.5L83.7 339Z" fill="#6d7d8b" stroke="#6d7d8b"/><path d="M49.3 629.5L61.9 608.1L53.9 598.6Z" fill="#607181" stroke="#607181"/><path d="M53.9 598.6L61.9 608.1L65.6 595.1Z" fill="#485a6e" stroke="#485a6e"/><path d="M89.9 622L125.2 613.5L99.1 586.1Z" fill="#677786" stroke="#677786"/><path d="M0 545.7L17.3 588.1L29.8 554.1Z" fill="#4e6073" stroke="#4e6073"/><path d="M71.9 326.5L49.6 332L83.7 339Z" fill="#546678" stroke="#546678"/><path d="M126.9 618.5L125.2 613.5L100.7 630.1Z" fill="#3d4f65" stroke="#3d4f65"/><path d="M127.2 601L141.2 622.1L142.4 596.5Z" fill="#3d4f65" stroke="#3d4f65"/><path d="M162.2 352.9L160 330.9L145.4 354.9Z" fill="#32445c" stroke="#32445c"/><path d="M104.9 330L91.3 316.5L89.7 327.5Z" fill="#374a61" stroke="#374a61"/><path d="M89.7 327.5L78.7 312.5L71.9 326.5Z" fill="#546678" stroke="#546678"/><path d="M160 314.6L112.9 318L120.4 340Z" fill="#32445c" stroke="#32445c"/><path d="M112.9 318L91.3 316.5L104.9 330Z" fill="#546678" stroke="#546678"/><path d="M71.9 326.5L40.8 306.6L49.6 332Z" fill="#677786" stroke="#677786"/><path d="M89.9 622L99.1 586.1L73.1 602.5Z" fill="#3d4f65" stroke="#3d4f65"/><path d="M125.2 613.5L141.2 622.1L127.2 601Z" fill="#607181" stroke="#607181"/><path d="M72.1 621.1L73.1 602.5L61.9 608.1Z" fill="#546678" stroke="#546678"/><path d="M72.1 621.1L89.9 622L73.1 602.5Z" fill="#32445c" stroke="#32445c"/><path d="M160 617L162.4 609L142.4 596.5Z" fill="#6d7d8b" stroke="#6d7d8b"/><path d="M160 595.6L179.2 634.5L160 562.1Z" fill="#32445c" stroke="#32445c"/><path d="M162.2 409.4L179.2 315.6L160 366.5Z" fill="#485a6e" stroke="#485a6e"/><path d="M49.3 629.5L72.1 621.1L61.9 608.1Z" fill="#32445c" stroke="#32445c"/><path d="M0 342.9L13.8 352.5L23.3 345.4Z" fill="#3d4f65" stroke="#3d4f65"/><path d="M0 342.9L0 347.5L13.8 352.5Z" fill="#607181" stroke="#607181"/><path d="M13.8 352.5L0 347.5L0 384.4Z" fill="#3d4f65" stroke="#3d4f65"/><path d="M0 342.9L23.3 345.4L0 335Z" fill="#546678" stroke="#546678"/><path d="M69.9 301.6L78.7 312.5L93.4 286.5Z" fill="#485a6e" stroke="#485a6e"/><path d="M91.3 316.5L78.7 312.5L89.7 327.5Z" fill="#374a61" stroke="#374a61"/><path d="M0 545.7L-10.2 582.5L17.3 588.1Z" fill="#607181" stroke="#607181"/><path d="M17.3 588.1L26.6 609L53.9 598.6Z" fill="#607181" stroke="#607181"/><path d="M-18.2 500.2L-10.2 582.5L0 545.7Z" fill="#546678" stroke="#546678"/><path d="M-1.2 601.6L26.6 609L17.3 588.1Z" fill="#42556a" stroke="#42556a"/><path d="M179.2 315.6L161.2 323L160 330.9Z" fill="#546678" stroke="#546678"/><path d="M160 330.9L161.2 323L120.4 340Z" fill="#5a6b7d" stroke="#5a6b7d"/><path d="M112.9 318L112.9 308.5L91.3 316.5Z" fill="#607181" stroke="#607181"/><path d="M35.1 321.5L43.8 340.5L49.6 332Z" fill="#5a6b7d" stroke="#5a6b7d"/><path d="M0 347.5L-7.2 327.9L-13.2 393.9Z" fill="#546678" stroke="#546678"/><path d="M139.7 622.5L141.2 622.1L125.2 613.5Z" fill="#607181" stroke="#607181"/><path d="M139.7 622.5L125.2 613.5L126.9 618.5Z" fill="#42556a" stroke="#42556a"/><path d="M136.4 652.4L139.7 622.5L126.9 618.5Z" fill="#3d4f65" stroke="#3d4f65"/><path d="M40.8 306.6L35.1 321.5L49.6 332Z" fill="#374a61" stroke="#374a61"/><path d="M114.4 306L112.9 308.5L112.9 318Z" fill="#4e6073" stroke="#4e6073"/><path d="M160 619.5L160 617L141.2 622.1Z" fill="#546678" stroke="#546678"/><path d="M141.2 622.1L160 617L142.4 596.5Z" fill="#32445c" stroke="#32445c"/><path d="M73.7 654L100.7 630.1L89.9 622Z" fill="#5a6b7d" stroke="#5a6b7d"/><path d="M89.9 622L100.7 630.1L125.2 613.5Z" fill="#546678" stroke="#546678"/><path d="M107.7 639L100.7 630.1L92.7 660.4Z" fill="#485a6e" stroke="#485a6e"/><path d="M132.2 295L114.4 306L112.9 318Z" fill="#607181" stroke="#607181"/><path d="M112.9 308.5L106.4 296.1L91.3 316.5Z" fill="#374a61" stroke="#374a61"/><path d="M160 624L141.2 622.1L160 624.1Z" fill="#485a6e" stroke="#485a6e"/><path d="M160 624L160 619.5L141.2 622.1Z" fill="#374a61" stroke="#374a61"/><path d="M160 617L179.2 634.5L162.4 609Z" fill="#607181" stroke="#607181"/><path d="M0 329.5L0 335L23.3 345.4Z" fill="#6d7d8b" stroke="#6d7d8b"/><path d="M0 342.9L-7.2 327.9L0 347.5Z" fill="#32445c" stroke="#32445c"/><path d="M161.2 323L160 314.6L120.4 340Z" fill="#32445c" stroke="#32445c"/><path d="M-10.2 582.5L-1.2 601.6L17.3 588.1Z" fill="#546678" stroke="#546678"/><path d="M26.6 609L49.3 629.5L53.9 598.6Z" fill="#607181" stroke="#607181"/><path d="M160 624.1L141.2 622.1L153.4 649.5Z" fill="#677786" stroke="#677786"/><path d="M160 619.5L179.2 634.5L160 617Z" fill="#485a6e" stroke="#485a6e"/><path d="M153.4 649.5L141.2 622.1L139.7 622.5Z" fill="#4e6073" stroke="#4e6073"/><path d="M160 624L179.2 634.5L160 619.5Z" fill="#4e6073" stroke="#4e6073"/><path d="M44.8 630.5L49.3 629.5L26.6 609Z" fill="#32445c" stroke="#32445c"/><path d="M93.4 286.5L78.7 312.5L91.3 316.5Z" fill="#374a61" stroke="#374a61"/><path d="M78.7 312.5L69.9 301.6L71.9 326.5Z" fill="#607181" stroke="#607181"/><path d="M7.6 316.6L0 329.5L23.3 345.4Z" fill="#32445c" stroke="#32445c"/><path d="M0 323L0 329.5L7.6 316.6Z" fill="#677786" stroke="#677786"/><path d="M0 335L-7.2 327.9L0 342.9Z" fill="#3d4f65" stroke="#3d4f65"/><path d="M32.1 626.5L44.8 630.5L26.6 609Z" fill="#32445c" stroke="#32445c"/><path d="M73.7 654L89.9 622L72.1 621.1Z" fill="#677786" stroke="#677786"/><path d="M64.9 647L72.1 621.1L49.3 629.5Z" fill="#3d4f65" stroke="#3d4f65"/><path d="M100.7 630.1L107.7 639L126.9 618.5Z" fill="#677786" stroke="#677786"/><path d="M16.6 622.5L32.1 626.5L26.6 609Z" fill="#546678" stroke="#546678"/><path d="M69.9 301.6L40.8 306.6L71.9 326.5Z" fill="#5a6b7d" stroke="#5a6b7d"/><path d="M132.2 295L106.4 296.1L114.4 306Z" fill="#3d4f65" stroke="#3d4f65"/><path d="M114.4 306L106.4 296.1L112.9 308.5Z" fill="#607181" stroke="#607181"/><path d="M179.2 634.5L160 522.2L160 526.7Z" fill="#42556a" stroke="#42556a"/><path d="M162.2 352.9L179.2 315.6L160 330.9Z" fill="#677786" stroke="#677786"/><path d="M161.2 323L179.2 315.6L160 314.6Z" fill="#374a61" stroke="#374a61"/><path d="M160 314.6L132.2 295L112.9 318Z" fill="#374a61" stroke="#374a61"/><path d="M0 611.5L0 610.6L-3.4 618.5Z" fill="#4e6073" stroke="#4e6073"/><path d="M-1.2 601.6L0 610.6L26.6 609Z" fill="#32445c" stroke="#32445c"/><path d="M-3.4 618.5L0 610.6L-1.2 601.6Z" fill="#32445c" stroke="#32445c"/><path d="M0 610.6L16.6 622.5L26.6 609Z" fill="#5a6b7d" stroke="#5a6b7d"/><path d="M0 611.5L16.6 622.5L0 610.6Z" fill="#546678" stroke="#546678"/><path d="M55.3 645L49.3 629.5L45.3 645.5Z" fill="#546678" stroke="#546678"/><path d="M18.3 312L23.3 345.4L35.1 321.5Z" fill="#4e6073" stroke="#4e6073"/><path d="M0 329.5L-7.2 327.9L0 335Z" fill="#677786" stroke="#677786"/><path d="M26.3 304L18.3 312L35.1 321.5Z" fill="#6d7d8b" stroke="#6d7d8b"/><path d="M0 323L-7.2 327.9L0 329.5Z" fill="#3d4f65" stroke="#3d4f65"/><path d="M160 300L132.2 295L160 314.6Z" fill="#546678" stroke="#546678"/><path d="M18.3 312L7.6 316.6L23.3 345.4Z" fill="#546678" stroke="#546678"/><path d="M0 323L-8.2 320L-7.2 327.9Z" fill="#6d7d8b" stroke="#6d7d8b"/><path d="M-3.4 618.5L0 616.5L0 611.5Z" fill="#374a61" stroke="#374a61"/><path d="M0 611.5L0 616.5L16.6 622.5Z" fill="#6d7d8b" stroke="#6d7d8b"/><path d="M179.2 315.6L160 300L160 314.6Z" fill="#3d4f65" stroke="#3d4f65"/><path d="M42.8 292.1L26.3 304L40.8 306.6Z" fill="#607181" stroke="#607181"/><path d="M40.8 306.6L26.3 304L35.1 321.5Z" fill="#6d7d8b" stroke="#6d7d8b"/><path d="M18.3 312L13.6 283.5L7.6 316.6Z" fill="#607181" stroke="#607181"/><path d="M42.8 292.1L40.8 306.6L69.9 301.6Z" fill="#6d7d8b" stroke="#6d7d8b"/><path d="M-10.2 582.5L-3.4 618.5L-1.2 601.6Z" fill="#546678" stroke="#546678"/><path d="M0 616.5L0 622.1L16.6 622.5Z" fill="#546678" stroke="#546678"/><path d="M49.3 629.5L44.8 630.5L45.3 645.5Z" fill="#3d4f65" stroke="#3d4f65"/><path d="M44.8 630.5L32.1 626.5L45.3 645.5Z" fill="#485a6e" stroke="#485a6e"/><path d="M55.3 645L64.9 647L49.3 629.5Z" fill="#42556a" stroke="#42556a"/><path d="M45.3 645.5L32.1 626.5L31.1 655Z" fill="#5a6b7d" stroke="#5a6b7d"/><path d="M109.1 652L113.7 649.5L107.7 639Z" fill="#4e6073" stroke="#4e6073"/><path d="M107.7 639L113.7 649.5L126.9 618.5Z" fill="#32445c" stroke="#32445c"/><path d="M89.1 265.1L93.4 286.5L123.2 265.1Z" fill="#6d7d8b" stroke="#6d7d8b"/><path d="M106.4 296.1L93.4 286.5L91.3 316.5Z" fill="#546678" stroke="#546678"/><path d="M123.2 265.1L106.4 296.1L132.2 295Z" fill="#374a61" stroke="#374a61"/><path d="M55.3 645L64.9 647.5L64.9 647Z" fill="#677786" stroke="#677786"/><path d="M64.9 647L73.7 654L72.1 621.1Z" fill="#32445c" stroke="#32445c"/><path d="M-3.4 618.5L0 622.1L0 616.5Z" fill="#5a6b7d" stroke="#5a6b7d"/><path d="M13.6 283.5L-8.2 320L7.6 316.6Z" fill="#607181" stroke="#607181"/><path d="M7.6 316.6L-8.2 320L0 323Z" fill="#3d4f65" stroke="#3d4f65"/><path d="M-7.2 327.9L-8.2 320L-13.2 393.9Z" fill="#4e6073" stroke="#4e6073"/><path d="M92.7 660.4L109.1 652L107.7 639Z" fill="#374a61" stroke="#374a61"/><path d="M160 648.5L179.2 634.5L160 624.1Z" fill="#6d7d8b" stroke="#6d7d8b"/><path d="M63.1 265.1L42.8 292.1L69.9 301.6Z" fill="#6d7d8b" stroke="#6d7d8b"/><path d="M26.3 304L13.6 283.5L18.3 312Z" fill="#546678" stroke="#546678"/><path d="M160 624.1L179.2 634.5L160 624Z" fill="#4e6073" stroke="#4e6073"/><path d="M162.4 609L179.2 634.5L160 595.6Z" fill="#5a6b7d" stroke="#5a6b7d"/><path d="M136.4 652.4L126.9 618.5L113.7 649.5Z" fill="#42556a" stroke="#42556a"/><path d="M31.1 655L32.1 626.5L21.3 651.4Z" fill="#4e6073" stroke="#4e6073"/><path d="M51.1 658.4L73.7 654L64.9 647.5Z" fill="#4e6073" stroke="#4e6073"/><path d="M179.2 315.6L160.2 292.5L160 300Z" fill="#607181" stroke="#607181"/><path d="M160 300L145.7 282.6L132.2 295Z" fill="#607181" stroke="#607181"/><path d="M160 276.5L160 292L160.2 292.5Z" fill="#677786" stroke="#677786"/><path d="M160.2 292.5L160 292L160 300Z" fill="#6d7d8b" stroke="#6d7d8b"/><path d="M51.1 658.4L64.9 647.5L55.3 645Z" fill="#485a6e" stroke="#485a6e"/><path d="M64.9 647.5L73.7 654L64.9 647Z" fill="#5a6b7d" stroke="#5a6b7d"/><path d="M132.2 664L136.4 652.4L113.7 649.5Z" fill="#4e6073" stroke="#4e6073"/><path d="M132.2 664L113.7 649.5L109.1 652Z" fill="#374a61" stroke="#374a61"/><path d="M136.4 652.4L153.4 649.5L139.7 622.5Z" fill="#4e6073" stroke="#4e6073"/><path d="M132.2 664L154.4 650L153.4 649.5Z" fill="#677786" stroke="#677786"/><path d="M153.4 649.5L160 648.5L160 624.1Z" fill="#5a6b7d" stroke="#5a6b7d"/><path d="M154.4 650L160 648.5L153.4 649.5Z" fill="#32445c" stroke="#32445c"/><path d="M160 292L145.7 282.6L160 300Z" fill="#485a6e" stroke="#485a6e"/><path d="M79.1 670.9L92.7 660.4L73.7 654Z" fill="#677786" stroke="#677786"/><path d="M73.7 654L92.7 660.4L100.7 630.1Z" fill="#6d7d8b" stroke="#6d7d8b"/><path d="M136.4 652.4L132.2 664L153.4 649.5Z" fill="#485a6e" stroke="#485a6e"/><path d="M89.1 265.1L83.3 275.6L93.4 286.5Z" fill="#677786" stroke="#677786"/><path d="M93.4 286.5L83.3 275.6L69.9 301.6Z" fill="#42556a" stroke="#42556a"/><path d="M32.8 660L51.1 658.4L45.3 645.5Z" fill="#607181" stroke="#607181"/><path d="M45.3 645.5L51.1 658.4L55.3 645Z" fill="#3d4f65" stroke="#3d4f65"/><path d="M21.3 651.4L32.1 626.5L16.6 622.5Z" fill="#677786" stroke="#677786"/><path d="M21.3 651.4L16.6 622.5L17.3 654Z" fill="#6d7d8b" stroke="#6d7d8b"/><path d="M110.7 684.9L109.1 652L92.7 660.4Z" fill="#5a6b7d" stroke="#5a6b7d"/><path d="M110.7 684.9L132.2 664L109.1 652Z" fill="#374a61" stroke="#374a61"/><path d="M154.4 650L160 673.9L160 648.5Z" fill="#374a61" stroke="#374a61"/><path d="M17.3 654L16.6 622.5L0 622.1Z" fill="#546678" stroke="#546678"/><path d="M160 276.5L143.4 273.6L145.7 282.6Z" fill="#42556a" stroke="#42556a"/><path d="M145.7 282.6L143.4 273.6L132.2 295Z" fill="#4e6073" stroke="#4e6073"/><path d="M160 271.1L143.2 272.6L143.4 273.6Z" fill="#32445c" stroke="#32445c"/><path d="M143.4 273.6L123.2 265.1L132.2 295Z" fill="#607181" stroke="#607181"/><path d="M179.2 315.6L160 276.5L160.2 292.5Z" fill="#546678" stroke="#546678"/><path d="M160 292L160 276.5L145.7 282.6Z" fill="#3d4f65" stroke="#3d4f65"/><path d="M17.8 661.9L17.3 654L0 664Z" fill="#42556a" stroke="#42556a"/><path d="M17.8 661.9L30.6 663.4L31.1 655Z" fill="#42556a" stroke="#42556a"/><path d="M31.1 655L32.8 660L45.3 645.5Z" fill="#3d4f65" stroke="#3d4f65"/><path d="M30.6 663.4L32.8 660L31.1 655Z" fill="#3d4f65" stroke="#3d4f65"/><path d="M51.1 658.4L79.1 670.9L73.7 654Z" fill="#3d4f65" stroke="#3d4f65"/><path d="M25.6 274L26.3 304L42.8 292.1Z" fill="#6d7d8b" stroke="#6d7d8b"/><path d="M25.6 274L13.6 283.5L26.3 304Z" fill="#374a61" stroke="#374a61"/><path d="M123.2 265.1L93.4 286.5L106.4 296.1Z" fill="#677786" stroke="#677786"/><path d="M83.3 275.6L63.1 265.1L69.9 301.6Z" fill="#5a6b7d" stroke="#5a6b7d"/><path d="M52.6 690L79.1 670.9L51.1 658.4Z" fill="#3d4f65" stroke="#3d4f65"/><path d="M137.7 254.6L123.2 265.1L143.2 272.6Z" fill="#677786" stroke="#677786"/><path d="M143.2 272.6L123.2 265.1L143.4 273.6Z" fill="#546678" stroke="#546678"/><path d="M89.1 265.1L63.1 265.1L83.3 275.6Z" fill="#677786" stroke="#677786"/><path d="M17.8 661.9L31.1 655L21.3 651.4Z" fill="#485a6e" stroke="#485a6e"/><path d="M32.8 660L30.6 663.4L51.1 658.4Z" fill="#3d4f65" stroke="#3d4f65"/><path d="M179.2 315.6L160 271.1L160 276.5Z" fill="#42556a" stroke="#42556a"/><path d="M160 276.5L160 271.1L143.4 273.6Z" fill="#607181" stroke="#607181"/><path d="M34.1 262.6L25.6 274L42.8 292.1Z" fill="#485a6e" stroke="#485a6e"/><path d="M0 664L17.3 654L0 622.1Z" fill="#677786" stroke="#677786"/><path d="M17.3 654L17.8 661.9L21.3 651.4Z" fill="#374a61" stroke="#374a61"/><path d="M91.7 686.4L92.7 660.4L79.1 670.9Z" fill="#6d7d8b" stroke="#6d7d8b"/><path d="M130.2 698.9L160 673.9L132.2 664Z" fill="#607181" stroke="#607181"/><path d="M132.2 664L160 673.9L154.4 650Z" fill="#607181" stroke="#607181"/><path d="M160 648.5L160 673.9L179.2 634.5Z" fill="#42556a" stroke="#42556a"/><path d="M-10.2 582.5L-21.2 647L-3.4 618.5Z" fill="#607181" stroke="#607181"/><path d="M-3.4 618.5L-21.2 647L0 622.1Z" fill="#5a6b7d" stroke="#5a6b7d"/><path d="M-18.2 500.2L-21.2 647L-10.2 582.5Z" fill="#485a6e" stroke="#485a6e"/><path d="M63.1 265.1L34.1 262.6L42.8 292.1Z" fill="#4e6073" stroke="#4e6073"/><path d="M7.6 270.6L4.8 272L13.6 283.5Z" fill="#546678" stroke="#546678"/><path d="M33.1 250.6L34.1 262.6L63.1 265.1Z" fill="#374a61" stroke="#374a61"/><path d="M68.3 254.1L63.1 265.1L89.1 265.1Z" fill="#5a6b7d" stroke="#5a6b7d"/><path d="M113.9 247.1L89.1 265.1L123.2 265.1Z" fill="#546678" stroke="#546678"/><path d="M96.7 232.1L68.3 254.1L89.1 265.1Z" fill="#32445c" stroke="#32445c"/><path d="M33.1 250.6L32.1 262L34.1 262.6Z" fill="#374a61" stroke="#374a61"/><path d="M34.1 262.6L32.1 262L25.6 274Z" fill="#5a6b7d" stroke="#5a6b7d"/><path d="M91.7 686.4L79.1 670.9L52.6 690Z" fill="#42556a" stroke="#42556a"/><path d="M91.7 686.4L110.7 684.9L92.7 660.4Z" fill="#5a6b7d" stroke="#5a6b7d"/><path d="M160 271.1L137.7 254.6L143.2 272.6Z" fill="#485a6e" stroke="#485a6e"/><path d="M7.6 270.6L13.6 283.5L25.6 274Z" fill="#546678" stroke="#546678"/><path d="M13.6 283.5L4.8 272L-8.2 320Z" fill="#5a6b7d" stroke="#5a6b7d"/><path d="M32.1 262L7.6 270.6L25.6 274Z" fill="#374a61" stroke="#374a61"/><path d="M52.6 690L51.1 658.4L30.6 663.4Z" fill="#32445c" stroke="#32445c"/><path d="M-21.2 647L0 664L0 622.1Z" fill="#3d4f65" stroke="#3d4f65"/><path d="M30.3 693.4L52.6 690L30.6 663.4Z" fill="#6d7d8b" stroke="#6d7d8b"/><path d="M137.7 254.6L113.9 247.1L123.2 265.1Z" fill="#546678" stroke="#546678"/><path d="M0 262.1L7.6 270.6L0 250.6Z" fill="#607181" stroke="#607181"/><path d="M0 262.1L0 264.6L7.6 270.6Z" fill="#3d4f65" stroke="#3d4f65"/><path d="M7.6 270.6L0 264.6L4.8 272Z" fill="#3d4f65" stroke="#3d4f65"/><path d="M4.8 272L0 264.6L-8.2 320Z" fill="#42556a" stroke="#42556a"/><path d="M33.1 250.6L63.1 265.1L68.3 254.1Z" fill="#374a61" stroke="#374a61"/><path d="M9.6 679.9L30.6 663.4L17.8 661.9Z" fill="#677786" stroke="#677786"/><path d="M97.9 696.9L116.9 694.4L110.7 684.9Z" fill="#607181" stroke="#607181"/><path d="M97.9 696.9L110.7 684.9L91.7 686.4Z" fill="#607181" stroke="#607181"/><path d="M110.7 684.9L116.9 694.4L132.2 664Z" fill="#677786" stroke="#677786"/><path d="M58.6 228.1L33.1 250.6L68.3 254.1Z" fill="#485a6e" stroke="#485a6e"/><path d="M160 271.1L145.4 245.7L137.7 254.6Z" fill="#677786" stroke="#677786"/><path d="M125.9 237.1L115.9 238.6L113.9 247.1Z" fill="#374a61" stroke="#374a61"/><path d="M113.9 247.1L96.7 232.1L89.1 265.1Z" fill="#546678" stroke="#546678"/><path d="M0 250.6L7.6 270.6L32.1 262Z" fill="#485a6e" stroke="#485a6e"/><path d="M0 264.6L0 262.1L-8.2 320Z" fill="#485a6e" stroke="#485a6e"/><path d="M89.1 711.9L97.9 696.9L91.7 686.4Z" fill="#3d4f65" stroke="#3d4f65"/><path d="M0 664L9.6 679.9L17.8 661.9Z" fill="#5a6b7d" stroke="#5a6b7d"/><path d="M0 679.4L9.6 679.9L0 664Z" fill="#3d4f65" stroke="#3d4f65"/><path d="M125.9 237.1L113.9 247.1L137.7 254.6Z" fill="#374a61" stroke="#374a61"/><path d="M109.9 708.4L130.2 698.9L116.9 694.4Z" fill="#6d7d8b" stroke="#6d7d8b"/><path d="M116.9 694.4L130.2 698.9L132.2 664Z" fill="#607181" stroke="#607181"/><path d="M145.4 245.7L125.9 237.1L137.7 254.6Z" fill="#5a6b7d" stroke="#5a6b7d"/><path d="M115.9 238.6L96.7 232.1L113.9 247.1Z" fill="#5a6b7d" stroke="#5a6b7d"/><path d="M-21.2 647L0 679.4L0 664Z" fill="#546678" stroke="#546678"/><path d="M9.6 679.9L30.3 693.4L30.6 663.4Z" fill="#677786" stroke="#677786"/><path d="M0 691L30.3 693.4L9.6 679.9Z" fill="#6d7d8b" stroke="#6d7d8b"/><path d="M89.1 711.9L109.9 708.4L97.9 696.9Z" fill="#485a6e" stroke="#485a6e"/><path d="M97.9 696.9L109.9 708.4L116.9 694.4Z" fill="#546678" stroke="#546678"/><path d="M113.9 214.2L96.7 232.1L115.9 238.6Z" fill="#5a6b7d" stroke="#5a6b7d"/><path d="M0 248.1L0 250.6L10.6 236.1Z" fill="#677786" stroke="#677786"/><path d="M33.1 250.6L0 250.6L32.1 262Z" fill="#32445c" stroke="#32445c"/><path d="M0 262.1L0 250.6L-8.2 320Z" fill="#32445c" stroke="#32445c"/><path d="M68.6 716.9L91.7 686.4L52.6 690Z" fill="#6d7d8b" stroke="#6d7d8b"/><path d="M10.6 236.1L0 250.6L33.1 250.6Z" fill="#6d7d8b" stroke="#6d7d8b"/><path d="M0 250.6L0 248.1L-8.2 320Z" fill="#6d7d8b" stroke="#6d7d8b"/><path d="M35.6 726.4L53.8 705.9L30.3 693.4Z" fill="#6d7d8b" stroke="#6d7d8b"/><path d="M30.3 693.4L53.8 705.9L52.6 690Z" fill="#485a6e" stroke="#485a6e"/><path d="M130.2 698.9L160 703.4L160 673.9Z" fill="#546678" stroke="#546678"/><path d="M160 673.9L176.2 703.9L179.2 634.5Z" fill="#3d4f65" stroke="#3d4f65"/><path d="M135.4 714.4L160 703.4L130.2 698.9Z" fill="#42556a" stroke="#42556a"/><path d="M-21.2 698.4L0 691L0 679.4Z" fill="#5a6b7d" stroke="#5a6b7d"/><path d="M0 679.4L0 691L9.6 679.9Z" fill="#5a6b7d" stroke="#5a6b7d"/><path d="M68.3 224.1L58.6 228.1L68.3 254.1Z" fill="#485a6e" stroke="#485a6e"/><path d="M68.6 716.9L89.1 711.9L91.7 686.4Z" fill="#5a6b7d" stroke="#5a6b7d"/><path d="M165.2 726.4L176.2 703.9L160 703.4Z" fill="#6d7d8b" stroke="#6d7d8b"/><path d="M58.6 228.1L24.8 235.6L33.1 250.6Z" fill="#6d7d8b" stroke="#6d7d8b"/><path d="M96.7 232.1L68.3 224.1L68.3 254.1Z" fill="#4e6073" stroke="#4e6073"/><path d="M20.3 210.7L10.6 236.1L24.8 235.6Z" fill="#5a6b7d" stroke="#5a6b7d"/><path d="M89.3 210.6L68.3 224.1L96.7 232.1Z" fill="#607181" stroke="#607181"/><path d="M145.4 245.7L139.2 223.1L125.9 237.1Z" fill="#3d4f65" stroke="#3d4f65"/><path d="M125.9 237.1L113.9 214.2L115.9 238.6Z" fill="#32445c" stroke="#32445c"/><path d="M160 216.6L144.4 224.6L145.4 245.7Z" fill="#3d4f65" stroke="#3d4f65"/><path d="M160 216.6L145.4 245.7L160 271.1Z" fill="#677786" stroke="#677786"/><path d="M135.4 714.4L130.2 698.9L125.2 719.4Z" fill="#485a6e" stroke="#485a6e"/><path d="M160 703.4L176.2 703.9L160 673.9Z" fill="#485a6e" stroke="#485a6e"/><path d="M0 223.7L10.6 236.1L20.3 210.7Z" fill="#485a6e" stroke="#485a6e"/><path d="M24.8 235.6L10.6 236.1L33.1 250.6Z" fill="#485a6e" stroke="#485a6e"/><path d="M144.4 224.6L139.2 223.1L145.4 245.7Z" fill="#5a6b7d" stroke="#5a6b7d"/><path d="M125.2 719.4L130.2 698.9L109.9 708.4Z" fill="#6d7d8b" stroke="#6d7d8b"/><path d="M53.8 705.9L68.6 716.9L52.6 690Z" fill="#3d4f65" stroke="#3d4f65"/><path d="M109.4 723.9L115.9 718.9L109.9 708.4Z" fill="#4e6073" stroke="#4e6073"/><path d="M44.3 732.9L68.6 716.9L53.8 705.9Z" fill="#32445c" stroke="#32445c"/><path d="M109.4 723.9L109.9 708.4L89.1 711.9Z" fill="#485a6e" stroke="#485a6e"/><path d="M118.7 734.8L125.2 719.4L115.9 718.9Z" fill="#42556a" stroke="#42556a"/><path d="M115.9 718.9L125.2 719.4L109.9 708.4Z" fill="#607181" stroke="#607181"/><path d="M135.4 714.4L153.2 720.3L160 703.4Z" fill="#6d7d8b" stroke="#6d7d8b"/><path d="M130.7 207.7L113.9 214.2L139.2 223.1Z" fill="#6d7d8b" stroke="#6d7d8b"/><path d="M139.2 223.1L113.9 214.2L125.9 237.1Z" fill="#6d7d8b" stroke="#6d7d8b"/><path d="M20.3 210.7L24.8 235.6L27.6 205.7Z" fill="#32445c" stroke="#32445c"/><path d="M-21.2 698.4L0 703.4L0 691Z" fill="#4e6073" stroke="#4e6073"/><path d="M0 691L0 703.4L30.3 693.4Z" fill="#546678" stroke="#546678"/><path d="M106.4 734.8L109.4 723.9L99.7 736.9Z" fill="#4e6073" stroke="#4e6073"/><path d="M113.9 214.2L89.3 210.6L96.7 232.1Z" fill="#374a61" stroke="#374a61"/><path d="M137.4 749.9L153.2 720.3L135.4 714.4Z" fill="#32445c" stroke="#32445c"/><path d="M165.2 726.4L153.2 720.3L160 743.9Z" fill="#546678" stroke="#546678"/><path d="M179.2 315.6L160 216.6L160 271.1Z" fill="#677786" stroke="#677786"/><path d="M161.4 208.1L130.7 207.7L139.2 223.1Z" fill="#374a61" stroke="#374a61"/><path d="M113.9 214.2L109.2 202.7L89.3 210.6Z" fill="#677786" stroke="#677786"/><path d="M-21.2 647L-21.2 698.4L0 679.4Z" fill="#5a6b7d" stroke="#5a6b7d"/><path d="M161.4 208.1L139.2 223.1L144.4 224.6Z" fill="#374a61" stroke="#374a61"/><path d="M71.1 205.7L58.6 228.1L68.3 224.1Z" fill="#5a6b7d" stroke="#5a6b7d"/><path d="M10.6 236.1L0 223.7L0 248.1Z" fill="#607181" stroke="#607181"/><path d="M0 248.1L0 223.7L-8.2 320Z" fill="#5a6b7d" stroke="#5a6b7d"/><path d="M67.7 191.1L71.1 205.7L79.3 188.2Z" fill="#3d4f65" stroke="#3d4f65"/><path d="M89.3 210.6L71.1 205.7L68.3 224.1Z" fill="#3d4f65" stroke="#3d4f65"/><path d="M-21.2 698.4L0 714.9L0 703.4Z" fill="#677786" stroke="#677786"/><path d="M0 703.4L0 714.9L30.3 693.4Z" fill="#5a6b7d" stroke="#5a6b7d"/><path d="M99.7 736.9L109.4 723.9L89.1 711.9Z" fill="#374a61" stroke="#374a61"/><path d="M26.8 729.8L35.6 726.4L30.3 693.4Z" fill="#546678" stroke="#546678"/><path d="M130.7 207.7L109.2 202.7L113.9 214.2Z" fill="#485a6e" stroke="#485a6e"/><path d="M137.4 749.9L135.4 714.4L125.2 719.4Z" fill="#3d4f65" stroke="#3d4f65"/><path d="M153.2 720.3L165.2 726.4L160 703.4Z" fill="#677786" stroke="#677786"/><path d="M118.7 734.8L115.9 718.9L109.4 723.9Z" fill="#374a61" stroke="#374a61"/><path d="M99.7 736.9L89.1 711.9L68.6 716.9Z" fill="#374a61" stroke="#374a61"/><path d="M106.4 734.8L118.7 734.8L109.4 723.9Z" fill="#32445c" stroke="#32445c"/><path d="M179.2 315.6L161.4 208.1L160 216.6Z" fill="#374a61" stroke="#374a61"/><path d="M160 216.6L161.4 208.1L144.4 224.6Z" fill="#4e6073" stroke="#4e6073"/><path d="M130.7 207.7L131.4 187.3L109.2 202.7Z" fill="#6d7d8b" stroke="#6d7d8b"/><path d="M67.1 748.4L99.7 736.9L68.6 716.9Z" fill="#42556a" stroke="#42556a"/><path d="M106.4 734.8L123.7 750.3L118.7 734.8Z" fill="#677786" stroke="#677786"/><path d="M27.6 205.7L24.8 235.6L58.6 228.1Z" fill="#374a61" stroke="#374a61"/><path d="M27.3 734.9L44.3 732.9L35.6 726.4Z" fill="#32445c" stroke="#32445c"/><path d="M35.6 726.4L44.3 732.9L53.8 705.9Z" fill="#5a6b7d" stroke="#5a6b7d"/><path d="M0 714.9L26.8 729.8L30.3 693.4Z" fill="#374a61" stroke="#374a61"/><path d="M30.8 199.1L27.6 205.7L58.6 228.1Z" fill="#5a6b7d" stroke="#5a6b7d"/><path d="M20.3 210.7L5.6 199.2L0 223.7Z" fill="#546678" stroke="#546678"/><path d="M30.8 199.1L58.6 228.1L71.1 205.7Z" fill="#677786" stroke="#677786"/><path d="M161.4 208.1L160 201.2L130.7 207.7Z" fill="#6d7d8b" stroke="#6d7d8b"/><path d="M9.8 730.3L27.3 734.9L26.8 729.8Z" fill="#5a6b7d" stroke="#5a6b7d"/><path d="M26.8 729.8L27.3 734.9L35.6 726.4Z" fill="#546678" stroke="#546678"/><path d="M44.3 732.9L67.1 748.4L68.6 716.9Z" fill="#5a6b7d" stroke="#5a6b7d"/><path d="M-19.2 745.4L9.8 730.3L0 714.9Z" fill="#6d7d8b" stroke="#6d7d8b"/><path d="M0 714.9L9.8 730.3L26.8 729.8Z" fill="#374a61" stroke="#374a61"/><path d="M160 194.3L160 198.7L161.4 208.1Z" fill="#677786" stroke="#677786"/><path d="M161.4 208.1L160 198.7L160 201.2Z" fill="#32445c" stroke="#32445c"/><path d="M160 201.2L142.2 192.2L130.7 207.7Z" fill="#607181" stroke="#607181"/><path d="M67.7 191.1L30.8 199.1L71.1 205.7Z" fill="#4e6073" stroke="#4e6073"/><path d="M71.1 205.7L89.3 210.6L79.3 188.2Z" fill="#546678" stroke="#546678"/><path d="M27.6 205.7L5.6 199.2L20.3 210.7Z" fill="#42556a" stroke="#42556a"/><path d="M89.7 188.3L89.3 210.6L109.2 202.7Z" fill="#374a61" stroke="#374a61"/><path d="M160 198.7L142.2 192.2L160 201.2Z" fill="#6d7d8b" stroke="#6d7d8b"/><path d="M109.9 182.3L89.7 188.3L109.2 202.7Z" fill="#607181" stroke="#607181"/><path d="M89.7 188.3L79.3 188.2L89.3 210.6Z" fill="#677786" stroke="#677786"/><path d="M0 190.3L5.6 199.2L0 188.7Z" fill="#485a6e" stroke="#485a6e"/><path d="M160 188.1L160 194.3L167.2 166.7Z" fill="#42556a" stroke="#42556a"/><path d="M160 198.7L160 194.3L142.2 192.2Z" fill="#607181" stroke="#607181"/><path d="M80.9 762.3L67.1 748.4L44.6 762.8Z" fill="#607181" stroke="#607181"/><path d="M44.6 762.8L67.1 748.4L44.3 732.9Z" fill="#4e6073" stroke="#4e6073"/><path d="M137.4 749.9L125.2 719.4L118.7 734.8Z" fill="#42556a" stroke="#42556a"/><path d="M137.4 749.9L160 743.9L153.2 720.3Z" fill="#3d4f65" stroke="#3d4f65"/><path d="M123.7 750.3L106.4 734.8L109.1 761.3Z" fill="#546678" stroke="#546678"/><path d="M165.2 726.4L160 772.3L176.2 703.9Z" fill="#4e6073" stroke="#4e6073"/><path d="M133.4 175.2L131.4 187.3L142.2 192.2Z" fill="#4e6073" stroke="#4e6073"/><path d="M142.2 192.2L131.4 187.3L130.7 207.7Z" fill="#4e6073" stroke="#4e6073"/><path d="M89.7 188.3L85.1 178.2L79.3 188.2Z" fill="#4e6073" stroke="#4e6073"/><path d="M109.1 761.3L106.4 734.8L99.7 736.9Z" fill="#677786" stroke="#677786"/><path d="M123.7 750.3L137.4 749.9L118.7 734.8Z" fill="#677786" stroke="#677786"/><path d="M38.8 169.2L30.8 199.1L67.7 191.1Z" fill="#32445c" stroke="#32445c"/><path d="M30.8 199.1L5.6 199.2L27.6 205.7Z" fill="#42556a" stroke="#42556a"/><path d="M137.4 749.9L160 746.4L160 743.9Z" fill="#3d4f65" stroke="#3d4f65"/><path d="M160 743.9L160 746.4L165.2 726.4Z" fill="#374a61" stroke="#374a61"/><path d="M137.4 749.9L160 746.8L160 746.4Z" fill="#5a6b7d" stroke="#5a6b7d"/><path d="M160 746.4L160 746.8L165.2 726.4Z" fill="#485a6e" stroke="#485a6e"/><path d="M131.4 187.3L109.9 182.3L109.2 202.7Z" fill="#607181" stroke="#607181"/><path d="M79.3 188.2L68.3 178.7L67.7 191.1Z" fill="#42556a" stroke="#42556a"/><path d="M160 174.8L160 188.1L167.2 166.7Z" fill="#677786" stroke="#677786"/><path d="M160 194.3L160 188.1L142.2 192.2Z" fill="#546678" stroke="#546678"/><path d="M131.4 187.3L111.9 180.7L109.9 182.3Z" fill="#5a6b7d" stroke="#5a6b7d"/><path d="M133.4 175.2L111.9 180.7L131.4 187.3Z" fill="#42556a" stroke="#42556a"/><path d="M109.9 182.3L85.1 178.2L89.7 188.3Z" fill="#546678" stroke="#546678"/><path d="M99.7 163.2L85.1 178.2L109.9 182.3Z" fill="#485a6e" stroke="#485a6e"/><path d="M85.1 178.2L68.3 178.7L79.3 188.2Z" fill="#42556a" stroke="#42556a"/><path d="M123.7 750.3L129.2 770.8L137.4 749.9Z" fill="#32445c" stroke="#32445c"/><path d="M137.4 749.9L145.2 771.3L160 746.8Z" fill="#5a6b7d" stroke="#5a6b7d"/><path d="M89.1 764.3L109.1 761.3L99.7 736.9Z" fill="#5a6b7d" stroke="#5a6b7d"/><path d="M44.6 762.8L44.3 732.9L27.3 734.9Z" fill="#546678" stroke="#546678"/><path d="M67.1 748.4L80.9 762.3L99.7 736.9Z" fill="#546678" stroke="#546678"/><path d="M0 188.7L5.6 199.2L18.3 178.8Z" fill="#5a6b7d" stroke="#5a6b7d"/><path d="M5.6 199.2L0 190.3L0 223.7Z" fill="#546678" stroke="#546678"/><path d="M0 223.7L0 190.3L-8.2 320Z" fill="#485a6e" stroke="#485a6e"/><path d="M-8.2 320L-4.2 91.4L-13.2 393.9Z" fill="#6d7d8b" stroke="#6d7d8b"/><path d="M160 174.8L133.4 175.2L142.2 192.2Z" fill="#374a61" stroke="#374a61"/><path d="M99.7 163.2L80.9 171.7L85.1 178.2Z" fill="#607181" stroke="#607181"/><path d="M85.1 178.2L80.9 171.7L68.3 178.7Z" fill="#677786" stroke="#677786"/><path d="M80.9 762.3L89.1 764.3L99.7 736.9Z" fill="#5a6b7d" stroke="#5a6b7d"/><path d="M18.3 178.8L5.6 199.2L30.8 199.1Z" fill="#42556a" stroke="#42556a"/><path d="M0 190.3L0 188.7L-8.2 320Z" fill="#6d7d8b" stroke="#6d7d8b"/><path d="M99.7 163.2L109.9 182.3L111.9 180.7Z" fill="#42556a" stroke="#42556a"/><path d="M38.8 169.2L18.3 178.8L30.8 199.1Z" fill="#32445c" stroke="#32445c"/><path d="M29.3 762.3L44.6 762.8L27.3 734.9Z" fill="#677786" stroke="#677786"/><path d="M80.9 762.3L86.9 786.8L89.1 764.3Z" fill="#6d7d8b" stroke="#6d7d8b"/><path d="M167.2 166.7L160 194.3L161.4 208.1Z" fill="#4e6073" stroke="#4e6073"/><path d="M160 188.1L160 174.8L142.2 192.2Z" fill="#485a6e" stroke="#485a6e"/><path d="M133.4 175.2L99.7 163.2L111.9 180.7Z" fill="#607181" stroke="#607181"/><path d="M38.8 169.2L67.7 191.1L68.3 178.7Z" fill="#5a6b7d" stroke="#5a6b7d"/><path d="M-21.2 698.4L-19.2 745.4L0 714.9Z" fill="#677786" stroke="#677786"/><path d="M0 755.9L29.3 762.3L27.3 734.9Z" fill="#677786" stroke="#677786"/><path d="M0 755.9L27.3 734.9L9.8 730.3Z" fill="#5a6b7d" stroke="#5a6b7d"/><path d="M139.7 778.7L121.9 770.3L106.2 791.2Z" fill="#677786" stroke="#677786"/><path d="M106.2 791.2L121.9 770.3L109.1 761.3Z" fill="#374a61" stroke="#374a61"/><path d="M109.1 761.3L121.9 770.3L123.7 750.3Z" fill="#4e6073" stroke="#4e6073"/><path d="M86.9 786.8L80.9 762.3L74.1 793.8Z" fill="#3d4f65" stroke="#3d4f65"/><path d="M-19.2 745.4L0 755.9L9.8 730.3Z" fill="#607181" stroke="#607181"/><path d="M24.3 777.8L33.6 765.3L29.3 762.3Z" fill="#3d4f65" stroke="#3d4f65"/><path d="M29.3 762.3L33.6 765.3L44.6 762.8Z" fill="#3d4f65" stroke="#3d4f65"/><path d="M145.2 771.3L129.2 770.8L139.7 778.7Z" fill="#3d4f65" stroke="#3d4f65"/><path d="M121.9 770.3L129.2 770.8L123.7 750.3Z" fill="#3d4f65" stroke="#3d4f65"/><path d="M32.8 158.3L38.8 169.2L47.8 146.7Z" fill="#607181" stroke="#607181"/><path d="M47.8 146.7L38.8 169.2L68.3 178.7Z" fill="#546678" stroke="#546678"/><path d="M138.4 147.7L99.7 163.2L133.4 175.2Z" fill="#3d4f65" stroke="#3d4f65"/><path d="M129.2 770.8L145.2 771.3L137.4 749.9Z" fill="#546678" stroke="#546678"/><path d="M0 755.9L0 758.8L29.3 762.3Z" fill="#6d7d8b" stroke="#6d7d8b"/><path d="M-19.2 745.4L0 758.8L0 755.9Z" fill="#5a6b7d" stroke="#5a6b7d"/><path d="M23.6 162.7L16.8 172.7L18.3 178.8Z" fill="#4e6073" stroke="#4e6073"/><path d="M18.3 178.8L16.8 172.7L0 188.7Z" fill="#4e6073" stroke="#4e6073"/><path d="M139.7 778.7L129.2 770.8L121.9 770.3Z" fill="#485a6e" stroke="#485a6e"/><path d="M139.7 778.7L146.4 773.3L145.2 771.3Z" fill="#677786" stroke="#677786"/><path d="M145.2 771.3L160 772.3L160 746.8Z" fill="#42556a" stroke="#42556a"/><path d="M181.2 149.3L167.2 166.7L161.4 208.1Z" fill="#485a6e" stroke="#485a6e"/><path d="M160 174.8L151.4 157.3L133.4 175.2Z" fill="#42556a" stroke="#42556a"/><path d="M146.4 773.3L160 772.3L145.2 771.3Z" fill="#607181" stroke="#607181"/><path d="M160 746.8L160 772.3L165.2 726.4Z" fill="#42556a" stroke="#42556a"/><path d="M106.2 791.2L109.1 761.3L89.1 764.3Z" fill="#5a6b7d" stroke="#5a6b7d"/><path d="M146.4 773.3L160 797.3L160 772.3Z" fill="#4e6073" stroke="#4e6073"/><path d="M38.8 169.2L23.6 162.7L18.3 178.8Z" fill="#374a61" stroke="#374a61"/><path d="M16.8 172.7L0 167.2L0 188.7Z" fill="#677786" stroke="#677786"/><path d="M32.8 158.3L23.6 162.7L38.8 169.2Z" fill="#546678" stroke="#546678"/><path d="M167.2 166.7L151.4 157.3L160 174.8Z" fill="#5a6b7d" stroke="#5a6b7d"/><path d="M47.8 146.7L68.3 178.7L67.1 138.7Z" fill="#607181" stroke="#607181"/><path d="M13.6 157.3L0 167.2L16.8 172.7Z" fill="#607181" stroke="#607181"/><path d="M0 188.7L-4.2 91.4L-8.2 320Z" fill="#546678" stroke="#546678"/><path d="M68.3 178.7L80.9 171.7L67.1 138.7Z" fill="#5a6b7d" stroke="#5a6b7d"/><path d="M23.6 162.7L13.6 157.3L16.8 172.7Z" fill="#607181" stroke="#607181"/><path d="M0 758.8L24.3 777.8L29.3 762.3Z" fill="#4e6073" stroke="#4e6073"/><path d="M33.6 765.3L24.3 785.7L44.6 762.8Z" fill="#485a6e" stroke="#485a6e"/><path d="M24.3 785.7L24.3 777.8L14.3 786.2Z" fill="#32445c" stroke="#32445c"/><path d="M74.1 793.8L80.9 762.3L44.6 762.8Z" fill="#3d4f65" stroke="#3d4f65"/><path d="M24.8 144.3L23.6 162.7L32.8 158.3Z" fill="#6d7d8b" stroke="#6d7d8b"/><path d="M24.8 144.3L13.6 157.3L23.6 162.7Z" fill="#4e6073" stroke="#4e6073"/><path d="M86.9 786.8L106.2 791.2L89.1 764.3Z" fill="#4e6073" stroke="#4e6073"/><path d="M139.7 778.7L160 797.3L146.4 773.3Z" fill="#607181" stroke="#607181"/><path d="M104.1 796.7L106.2 791.2L86.9 786.8Z" fill="#374a61" stroke="#374a61"/><path d="M144.7 142.7L138.4 147.7L151.4 157.3Z" fill="#3d4f65" stroke="#3d4f65"/><path d="M151.4 157.3L138.4 147.7L133.4 175.2Z" fill="#485a6e" stroke="#485a6e"/><path d="M86.7 139.8L80.9 171.7L99.7 163.2Z" fill="#42556a" stroke="#42556a"/><path d="M14.3 786.2L24.3 777.8L0 758.8Z" fill="#374a61" stroke="#374a61"/><path d="M24.3 777.8L24.3 785.7L33.6 765.3Z" fill="#3d4f65" stroke="#3d4f65"/><path d="M38.3 807.3L74.1 793.8L44.6 762.8Z" fill="#546678" stroke="#546678"/><path d="M24.8 144.3L7.8 154.8L13.6 157.3Z" fill="#546678" stroke="#546678"/><path d="M13.6 157.3L7.8 154.8L0 167.2Z" fill="#42556a" stroke="#42556a"/><path d="M88.7 809.3L104.1 796.7L86.9 786.8Z" fill="#607181" stroke="#607181"/><path d="M106.2 791.2L135.4 804.3L139.7 778.7Z" fill="#3d4f65" stroke="#3d4f65"/><path d="M100.7 125.3L86.7 139.8L99.7 163.2Z" fill="#677786" stroke="#677786"/><path d="M-2.4 782.2L14.3 786.2L0 758.8Z" fill="#607181" stroke="#607181"/><path d="M73.9 829.7L88.7 809.3L65.1 829.2Z" fill="#3d4f65" stroke="#3d4f65"/><path d="M160 140.7L144.7 142.7L151.4 157.3Z" fill="#32445c" stroke="#32445c"/><path d="M100.7 125.3L83.9 129.8L86.7 139.8Z" fill="#546678" stroke="#546678"/><path d="M80.3 138.8L79.1 139.3L86.7 139.8Z" fill="#546678" stroke="#546678"/><path d="M86.7 139.8L79.1 139.3L80.9 171.7Z" fill="#485a6e" stroke="#485a6e"/><path d="M47.8 146.7L24.8 144.3L32.8 158.3Z" fill="#374a61" stroke="#374a61"/><path d="M-11.2 788.3L-2.4 782.2L0 758.8Z" fill="#546678" stroke="#546678"/><path d="M179.2 315.6L181.2 149.3L161.4 208.1Z" fill="#485a6e" stroke="#485a6e"/><path d="M167.2 166.7L160 140.7L151.4 157.3Z" fill="#677786" stroke="#677786"/><path d="M179.2 634.5L181.2 149.3L179.2 315.6Z" fill="#3d4f65" stroke="#3d4f65"/><path d="M74.1 137.8L83.9 129.8L69.3 132.3Z" fill="#677786" stroke="#677786"/><path d="M79.1 139.3L67.1 138.7L80.9 171.7Z" fill="#374a61" stroke="#374a61"/><path d="M74.1 137.8L67.1 138.7L79.1 139.3Z" fill="#677786" stroke="#677786"/><path d="M74.1 137.8L80.3 138.8L83.9 129.8Z" fill="#607181" stroke="#607181"/><path d="M80.3 138.8L74.1 137.8L79.1 139.3Z" fill="#5a6b7d" stroke="#5a6b7d"/><path d="M35.3 128.3L24.8 144.3L47.8 146.7Z" fill="#546678" stroke="#546678"/><path d="M55.6 125.8L47.8 146.7L67.1 138.7Z" fill="#677786" stroke="#677786"/><path d="M181.2 149.3L160 140.7L167.2 166.7Z" fill="#32445c" stroke="#32445c"/><path d="M83.9 129.8L80.3 138.8L86.7 139.8Z" fill="#3d4f65" stroke="#3d4f65"/><path d="M135.4 804.3L160 797.3L139.7 778.7Z" fill="#485a6e" stroke="#485a6e"/><path d="M160 772.3L160 797.3L176.2 703.9Z" fill="#546678" stroke="#546678"/><path d="M-11.2 788.3L0 789.3L-2.4 782.2Z" fill="#3d4f65" stroke="#3d4f65"/><path d="M-2.4 782.2L0 789.3L14.3 786.2Z" fill="#607181" stroke="#607181"/><path d="M14.3 786.2L38.3 807.3L24.3 785.7Z" fill="#42556a" stroke="#42556a"/><path d="M111.2 811.7L106.2 791.2L104.1 796.7Z" fill="#677786" stroke="#677786"/><path d="M99.7 163.2L138.4 147.7L100.7 125.3Z" fill="#42556a" stroke="#42556a"/><path d="M74.1 137.8L69.3 132.3L67.1 138.7Z" fill="#485a6e" stroke="#485a6e"/><path d="M88.7 809.3L86.9 786.8L74.1 793.8Z" fill="#6d7d8b" stroke="#6d7d8b"/><path d="M111.2 811.7L135.4 804.3L106.2 791.2Z" fill="#42556a" stroke="#42556a"/><path d="M-19.2 745.4L-11.2 788.3L0 758.8Z" fill="#607181" stroke="#607181"/><path d="M38.3 807.3L44.6 762.8L24.3 785.7Z" fill="#3d4f65" stroke="#3d4f65"/><path d="M100.7 125.3L138.4 147.7L147.4 121.4Z" fill="#4e6073" stroke="#4e6073"/><path d="M38.3 807.3L14.3 786.2L0 803.3Z" fill="#607181" stroke="#607181"/><path d="M147.4 121.4L138.4 147.7L144.7 142.7Z" fill="#485a6e" stroke="#485a6e"/><path d="M59.3 124.4L67.1 138.7L69.3 132.3Z" fill="#5a6b7d" stroke="#5a6b7d"/><path d="M125.9 816.2L147.4 808.2L135.4 804.3Z" fill="#6d7d8b" stroke="#6d7d8b"/><path d="M135.4 804.3L147.4 808.2L160 797.3Z" fill="#42556a" stroke="#42556a"/><path d="M88.7 809.3L111.2 811.7L104.1 796.7Z" fill="#485a6e" stroke="#485a6e"/><path d="M147.4 808.2L160 806.7L160 797.3Z" fill="#5a6b7d" stroke="#5a6b7d"/><path d="M160 797.3L160 806.7L176.2 703.9Z" fill="#607181" stroke="#607181"/><path d="M181.2 149.3L160 129.8L160 140.7Z" fill="#5a6b7d" stroke="#5a6b7d"/><path d="M160 140.7L160 129.8L144.7 142.7Z" fill="#677786" stroke="#677786"/><path d="M0 803.3L14.3 786.2L0 789.3Z" fill="#5a6b7d" stroke="#5a6b7d"/><path d="M120.9 818.7L125.9 816.2L111.2 811.7Z" fill="#32445c" stroke="#32445c"/><path d="M72.1 123.8L69.3 132.3L83.9 129.8Z" fill="#677786" stroke="#677786"/><path d="M59.3 124.4L55.6 125.8L67.1 138.7Z" fill="#6d7d8b" stroke="#6d7d8b"/><path d="M66.7 113.8L72.1 123.8L73.1 101.3Z" fill="#3d4f65" stroke="#3d4f65"/><path d="M55.6 125.8L35.3 128.3L47.8 146.7Z" fill="#42556a" stroke="#42556a"/><path d="M24.8 144.3L0 134.8L7.8 154.8Z" fill="#607181" stroke="#607181"/><path d="M72.1 123.8L59.3 124.4L69.3 132.3Z" fill="#374a61" stroke="#374a61"/><path d="M19.6 120.8L24.8 144.3L35.3 128.3Z" fill="#677786" stroke="#677786"/><path d="M16.6 122.3L0 134.8L24.8 144.3Z" fill="#677786" stroke="#677786"/><path d="M7.8 154.8L0 134.8L0 167.2Z" fill="#546678" stroke="#546678"/><path d="M0 167.2L-4.2 91.4L0 188.7Z" fill="#677786" stroke="#677786"/><path d="M111.2 811.7L125.9 816.2L135.4 804.3Z" fill="#32445c" stroke="#32445c"/><path d="M147.4 808.2L157.2 822.2L160 806.7Z" fill="#677786" stroke="#677786"/><path d="M120.9 818.7L111.2 811.7L101.4 844.2Z" fill="#677786" stroke="#677786"/><path d="M-11.2 788.3L0 803.3L0 789.3Z" fill="#42556a" stroke="#42556a"/><path d="M160 129.8L147.4 121.4L144.7 142.7Z" fill="#374a61" stroke="#374a61"/><path d="M73.1 101.3L72.1 123.8L83.9 129.8Z" fill="#32445c" stroke="#32445c"/><path d="M101.4 844.2L111.2 811.7L88.7 809.3Z" fill="#4e6073" stroke="#4e6073"/><path d="M125.9 816.2L157.2 822.2L147.4 808.2Z" fill="#6d7d8b" stroke="#6d7d8b"/><path d="M51.3 818.7L74.1 793.8L38.3 807.3Z" fill="#32445c" stroke="#32445c"/><path d="M42.6 820.7L51.3 818.7L38.3 807.3Z" fill="#485a6e" stroke="#485a6e"/><path d="M19.6 120.8L16.6 122.3L24.8 144.3Z" fill="#3d4f65" stroke="#3d4f65"/><path d="M33.6 106.4L35.3 128.3L55.6 125.8Z" fill="#32445c" stroke="#32445c"/><path d="M59.9 100.3L55.6 125.8L59.3 124.4Z" fill="#485a6e" stroke="#485a6e"/><path d="M66.7 113.8L59.3 124.4L72.1 123.8Z" fill="#42556a" stroke="#42556a"/><path d="M73.1 101.3L83.9 129.8L75.9 98.8Z" fill="#32445c" stroke="#32445c"/><path d="M33.6 106.4L19.6 120.8L35.3 128.3Z" fill="#485a6e" stroke="#485a6e"/><path d="M30.6 822.3L42.6 820.7L38.3 807.3Z" fill="#42556a" stroke="#42556a"/><path d="M65.1 829.2L88.7 809.3L74.1 793.8Z" fill="#32445c" stroke="#32445c"/><path d="M160 129.8L165.2 116.8L147.4 121.4Z" fill="#607181" stroke="#607181"/><path d="M147.4 121.4L106.4 107.8L100.7 125.3Z" fill="#6d7d8b" stroke="#6d7d8b"/><path d="M181.2 149.3L165.2 116.8L160 129.8Z" fill="#6d7d8b" stroke="#6d7d8b"/><path d="M135.2 839.7L125.9 816.2L120.9 818.7Z" fill="#607181" stroke="#607181"/><path d="M135.2 839.7L157.2 822.2L125.9 816.2Z" fill="#32445c" stroke="#32445c"/><path d="M0 101.3L16.6 122.3L19.6 120.8Z" fill="#374a61" stroke="#374a61"/><path d="M0 101.3L0 122.8L16.6 122.3Z" fill="#42556a" stroke="#42556a"/><path d="M16.6 122.3L0 122.8L0 134.8Z" fill="#3d4f65" stroke="#3d4f65"/><path d="M0 134.8L-4.2 91.4L0 167.2Z" fill="#677786" stroke="#677786"/><path d="M0 803.3L30.6 822.3L38.3 807.3Z" fill="#677786" stroke="#677786"/><path d="M65.1 829.2L74.1 793.8L51.3 818.7Z" fill="#374a61" stroke="#374a61"/><path d="M115.2 98.8L106.4 107.8L147.4 121.4Z" fill="#6d7d8b" stroke="#6d7d8b"/><path d="M59.9 100.3L33.6 106.4L55.6 125.8Z" fill="#546678" stroke="#546678"/><path d="M65.1 829.2L51.3 818.7L56.6 829.7Z" fill="#3d4f65" stroke="#3d4f65"/><path d="M56.6 829.7L51.3 818.7L42.6 820.7Z" fill="#485a6e" stroke="#485a6e"/><path d="M-16.2 825.7L0 818.2L0 803.3Z" fill="#374a61" stroke="#374a61"/><path d="M0 803.3L0 818.2L30.6 822.3Z" fill="#6d7d8b" stroke="#6d7d8b"/><path d="M20.8 837.2L56.6 829.7L42.6 820.7Z" fill="#32445c" stroke="#32445c"/><path d="M65.1 829.2L56.6 829.7L69.9 845.2Z" fill="#546678" stroke="#546678"/><path d="M65.1 829.2L75.7 840.2L73.9 829.7Z" fill="#32445c" stroke="#32445c"/><path d="M-16.2 825.7L0 819.7L0 818.2Z" fill="#677786" stroke="#677786"/><path d="M0 818.2L0 819.7L30.6 822.3Z" fill="#32445c" stroke="#32445c"/><path d="M59.9 100.3L59.3 124.4L66.7 113.8Z" fill="#42556a" stroke="#42556a"/><path d="M75.9 98.8L83.9 129.8L100.7 125.3Z" fill="#6d7d8b" stroke="#6d7d8b"/><path d="M75.9 98.8L100.7 125.3L106.4 107.8Z" fill="#374a61" stroke="#374a61"/><path d="M120.7 92.4L115.2 98.8L136.2 92.4Z" fill="#32445c" stroke="#32445c"/><path d="M61.1 92.9L59.9 100.3L73.1 101.3Z" fill="#607181" stroke="#607181"/><path d="M73.1 101.3L59.9 100.3L66.7 113.8Z" fill="#677786" stroke="#677786"/><path d="M91.4 86.8L75.9 98.8L106.4 107.8Z" fill="#6d7d8b" stroke="#6d7d8b"/><path d="M20.8 837.2L42.6 820.7L30.6 822.3Z" fill="#677786" stroke="#677786"/><path d="M69.9 845.2L75.7 840.2L65.1 829.2Z" fill="#32445c" stroke="#32445c"/><path d="M73.9 829.7L101.4 844.2L88.7 809.3Z" fill="#4e6073" stroke="#4e6073"/><path d="M101.4 844.2L135.2 839.7L120.9 818.7Z" fill="#6d7d8b" stroke="#6d7d8b"/><path d="M135.2 839.7L160 836.6L157.2 822.2Z" fill="#677786" stroke="#677786"/><path d="M157.2 822.2L160 836.6L160 806.7Z" fill="#6d7d8b" stroke="#6d7d8b"/><path d="M160 806.7L160.4 842.7L176.2 703.9Z" fill="#607181" stroke="#607181"/><path d="M-11.2 788.3L-16.2 825.7L0 803.3Z" fill="#5a6b7d" stroke="#5a6b7d"/><path d="M0 819.7L20.8 837.2L30.6 822.3Z" fill="#6d7d8b" stroke="#6d7d8b"/><path d="M-19.2 745.4L-16.2 825.7L-11.2 788.3Z" fill="#607181" stroke="#607181"/><path d="M-22.2 961L-16.2 825.7L-19.2 745.4Z" fill="#5a6b7d" stroke="#5a6b7d"/><path d="M135.2 839.7L160 838.7L160 836.6Z" fill="#6d7d8b" stroke="#6d7d8b"/><path d="M160 836.6L160.4 842.7L160 806.7Z" fill="#32445c" stroke="#32445c"/><path d="M75.7 840.2L101.4 844.2L73.9 829.7Z" fill="#677786" stroke="#677786"/><path d="M135.2 839.7L160.4 842.7L160 838.7Z" fill="#374a61" stroke="#374a61"/><path d="M136.2 92.4L115.2 98.8L147.4 121.4Z" fill="#4e6073" stroke="#4e6073"/><path d="M107.1 85.4L91.4 86.8L106.4 107.8Z" fill="#42556a" stroke="#42556a"/><path d="M75.9 98.8L61.1 92.9L73.1 101.3Z" fill="#42556a" stroke="#42556a"/><path d="M0 838.6L20.8 837.2L0 819.7Z" fill="#546678" stroke="#546678"/><path d="M75.7 840.2L79.7 850.7L101.4 844.2Z" fill="#5a6b7d" stroke="#5a6b7d"/><path d="M68.9 83.4L61.1 92.9L75.9 98.8Z" fill="#5a6b7d" stroke="#5a6b7d"/><path d="M59.9 100.3L61.1 92.9L33.6 106.4Z" fill="#42556a" stroke="#42556a"/><path d="M160 89.4L136.2 92.4L147.4 121.4Z" fill="#32445c" stroke="#32445c"/><path d="M70.3 851.1L69.9 845.2L63.1 851.2Z" fill="#5a6b7d" stroke="#5a6b7d"/><path d="M160 847.2L135.2 839.7L160 866.2Z" fill="#3d4f65" stroke="#3d4f65"/><path d="M160 847.2L160.4 842.7L135.2 839.7Z" fill="#3d4f65" stroke="#3d4f65"/><path d="M160 838.7L160.4 842.7L160 836.6Z" fill="#32445c" stroke="#32445c"/><path d="M33.6 106.4L0 101.3L19.6 120.8Z" fill="#32445c" stroke="#32445c"/><path d="M0 122.8L-4.2 91.4L0 134.8Z" fill="#6d7d8b" stroke="#6d7d8b"/><path d="M-13.2 393.9L-4.2 72.8L-18.2 500.2Z" fill="#42556a" stroke="#42556a"/><path d="M28.6 87.4L0 101.3L33.6 106.4Z" fill="#42556a" stroke="#42556a"/><path d="M181.2 149.3L167.2 93.3L165.2 116.8Z" fill="#374a61" stroke="#374a61"/><path d="M165.2 116.8L160 89.4L147.4 121.4Z" fill="#3d4f65" stroke="#3d4f65"/><path d="M107.1 85.4L106.4 107.8L115.2 98.8Z" fill="#32445c" stroke="#32445c"/><path d="M61.1 92.9L28.6 87.4L33.6 106.4Z" fill="#607181" stroke="#607181"/><path d="M107.1 85.4L115.2 98.8L120.7 92.4Z" fill="#374a61" stroke="#374a61"/><path d="M107.1 85.4L120.7 92.4L116.7 79.4Z" fill="#5a6b7d" stroke="#5a6b7d"/><path d="M91.4 86.8L80.9 86.4L75.9 98.8Z" fill="#607181" stroke="#607181"/><path d="M70.3 851.1L79.7 850.7L69.9 845.2Z" fill="#3d4f65" stroke="#3d4f65"/><path d="M69.9 845.2L79.7 850.7L75.7 840.2Z" fill="#374a61" stroke="#374a61"/><path d="M116.7 79.4L120.7 92.4L136.2 92.4Z" fill="#485a6e" stroke="#485a6e"/><path d="M91.4 86.8L87.1 84.4L80.9 86.4Z" fill="#4e6073" stroke="#4e6073"/><path d="M-16.2 825.7L0 838.6L0 819.7Z" fill="#42556a" stroke="#42556a"/><path d="M63.1 851.2L69.9 845.2L56.6 829.7Z" fill="#4e6073" stroke="#4e6073"/><path d="M63.1 851.2L56.6 829.7L20.8 837.2Z" fill="#546678" stroke="#546678"/><path d="M121.9 870.1L135.2 839.7L101.4 844.2Z" fill="#6d7d8b" stroke="#6d7d8b"/><path d="M160.4 842.7L160 866.2L176.2 703.9Z" fill="#5a6b7d" stroke="#5a6b7d"/><path d="M88.4 855.6L101.4 844.2L79.7 850.7Z" fill="#546678" stroke="#546678"/><path d="M167.2 93.3L160 89.4L165.2 116.8Z" fill="#677786" stroke="#677786"/><path d="M95.7 59.9L87.1 84.4L91.4 86.8Z" fill="#485a6e" stroke="#485a6e"/><path d="M80.9 86.4L68.9 83.4L75.9 98.8Z" fill="#5a6b7d" stroke="#5a6b7d"/><path d="M59.1 860.7L63.1 851.2L20.8 837.2Z" fill="#546678" stroke="#546678"/><path d="M78.9 68.9L80.9 86.4L87.1 84.4Z" fill="#32445c" stroke="#32445c"/><path d="M78.9 68.9L68.9 83.4L80.9 86.4Z" fill="#374a61" stroke="#374a61"/><path d="M0 838.6L11.8 844.7L20.8 837.2Z" fill="#5a6b7d" stroke="#5a6b7d"/><path d="M68.9 83.4L28.6 87.4L61.1 92.9Z" fill="#32445c" stroke="#32445c"/><path d="M79.7 850.7L70.3 851.1L72.3 870.2Z" fill="#485a6e" stroke="#485a6e"/><path d="M85.1 856.1L79.7 850.7L72.3 870.2Z" fill="#4e6073" stroke="#4e6073"/><path d="M85.1 856.1L88.4 855.6L79.7 850.7Z" fill="#42556a" stroke="#42556a"/><path d="M59.1 860.7L70.3 851.1L63.1 851.2Z" fill="#374a61" stroke="#374a61"/><path d="M112.4 875.7L121.9 870.1L101.4 844.2Z" fill="#546678" stroke="#546678"/><path d="M160 89.4L160 84.3L136.2 92.4Z" fill="#4e6073" stroke="#4e6073"/><path d="M95.7 59.9L78.9 68.9L87.1 84.4Z" fill="#546678" stroke="#546678"/><path d="M167.2 93.3L160 84.3L160 89.4Z" fill="#374a61" stroke="#374a61"/><path d="M116.2 73.9L116.7 79.4L136.2 92.4Z" fill="#546678" stroke="#546678"/><path d="M0 80.4L-4.2 91.4L0 101.3Z" fill="#42556a" stroke="#42556a"/><path d="M0 101.3L-4.2 91.4L0 122.8Z" fill="#3d4f65" stroke="#3d4f65"/><path d="M24.8 879.1L59.1 860.7L20.8 837.2Z" fill="#546678" stroke="#546678"/><path d="M112.4 875.7L101.4 844.2L88.4 855.6Z" fill="#6d7d8b" stroke="#6d7d8b"/><path d="M160 71.4L116.2 73.9L136.2 92.4Z" fill="#607181" stroke="#607181"/><path d="M116.7 79.4L116.2 73.9L107.1 85.4Z" fill="#6d7d8b" stroke="#6d7d8b"/><path d="M29.3 36.4L14.6 71.9L28.6 87.4Z" fill="#485a6e" stroke="#485a6e"/><path d="M28.6 87.4L0 80.4L0 101.3Z" fill="#677786" stroke="#677786"/><path d="M95.7 59.9L91.4 86.8L107.1 85.4Z" fill="#42556a" stroke="#42556a"/><path d="M0 75.9L0 80.4L14.6 71.9Z" fill="#374a61" stroke="#374a61"/><path d="M0 80.4L-0.2 80.4L-4.2 91.4Z" fill="#32445c" stroke="#32445c"/><path d="M160 84.3L160 71.4L136.2 92.4Z" fill="#374a61" stroke="#374a61"/><path d="M116.2 73.9L95.7 59.9L107.1 85.4Z" fill="#485a6e" stroke="#485a6e"/><path d="M167.2 93.3L160 71.4L160 84.3Z" fill="#546678" stroke="#546678"/><path d="M72.3 870.2L88.4 855.6L85.1 856.1Z" fill="#485a6e" stroke="#485a6e"/><path d="M136.7 876.6L160 866.2L135.2 839.7Z" fill="#5a6b7d" stroke="#5a6b7d"/><path d="M160 847.2L160 866.2L160.4 842.7Z" fill="#4e6073" stroke="#4e6073"/><path d="M70.9 878.6L72.3 870.2L59.1 860.7Z" fill="#3d4f65" stroke="#3d4f65"/><path d="M59.1 860.7L72.3 870.2L70.3 851.1Z" fill="#3d4f65" stroke="#3d4f65"/><path d="M0 838.6L-5.2 858.2L11.8 844.7Z" fill="#607181" stroke="#607181"/><path d="M11.8 844.7L24.8 879.1L20.8 837.2Z" fill="#374a61" stroke="#374a61"/><path d="M-16.2 825.7L-5.2 858.2L0 838.6Z" fill="#42556a" stroke="#42556a"/><path d="M14.6 71.9L0 80.4L28.6 87.4Z" fill="#374a61" stroke="#374a61"/><path d="M0 80.4L0 75.9L-0.2 80.4Z" fill="#485a6e" stroke="#485a6e"/><path d="M-0.2 80.4L-4.2 72.8L-4.2 91.4Z" fill="#677786" stroke="#677786"/><path d="M29.3 36.4L28.6 87.4L68.9 83.4Z" fill="#42556a" stroke="#42556a"/><path d="M104.1 889.6L112.4 875.7L88.4 855.6Z" fill="#374a61" stroke="#374a61"/><path d="M121.9 870.1L136.7 876.6L135.2 839.7Z" fill="#32445c" stroke="#32445c"/><path d="M101.9 55.9L95.7 59.9L116.2 73.9Z" fill="#607181" stroke="#607181"/><path d="M29.3 36.4L2.8 49.9L14.6 71.9Z" fill="#677786" stroke="#677786"/><path d="M2.8 49.9L-4.2 72.8L14.6 71.9Z" fill="#4e6073" stroke="#4e6073"/><path d="M14.6 71.9L-4.2 72.8L0 75.9Z" fill="#4e6073" stroke="#4e6073"/><path d="M0 75.9L-4.2 72.8L-0.2 80.4Z" fill="#6d7d8b" stroke="#6d7d8b"/><path d="M-4.2 91.4L-4.2 72.8L-13.2 393.9Z" fill="#677786" stroke="#677786"/><path d="M95.7 59.9L87.3 59.9L78.9 68.9Z" fill="#42556a" stroke="#42556a"/><path d="M127.2 883.6L136.7 876.6L121.9 870.1Z" fill="#6d7d8b" stroke="#6d7d8b"/><path d="M46.8 893.6L70.9 878.6L59.1 860.7Z" fill="#677786" stroke="#677786"/><path d="M72.3 870.2L73.7 882.2L88.4 855.6Z" fill="#3d4f65" stroke="#3d4f65"/><path d="M112.4 875.7L127.2 883.6L121.9 870.1Z" fill="#4e6073" stroke="#4e6073"/><path d="M115.7 45.9L101.9 55.9L116.2 73.9Z" fill="#6d7d8b" stroke="#6d7d8b"/><path d="M95.7 59.9L101.9 55.9L87.3 59.9Z" fill="#42556a" stroke="#42556a"/><path d="M29.3 36.4L68.9 83.4L78.9 68.9Z" fill="#677786" stroke="#677786"/><path d="M-5.2 858.2L0 870.7L11.8 844.7Z" fill="#5a6b7d" stroke="#5a6b7d"/><path d="M71.6 893.2L73.7 882.2L70.9 878.6Z" fill="#3d4f65" stroke="#3d4f65"/><path d="M70.9 878.6L73.7 882.2L72.3 870.2Z" fill="#607181" stroke="#607181"/><path d="M124.2 894.1L127.2 883.6L112.4 875.7Z" fill="#677786" stroke="#677786"/><path d="M136.7 876.6L160 891.1L160 866.2Z" fill="#546678" stroke="#546678"/><path d="M0 870.7L24.8 879.1L11.8 844.7Z" fill="#3d4f65" stroke="#3d4f65"/><path d="M73.7 882.2L104.1 889.6L88.4 855.6Z" fill="#485a6e" stroke="#485a6e"/><path d="M79.9 897.6L104.1 889.6L73.7 882.2Z" fill="#3d4f65" stroke="#3d4f65"/><path d="M160 48.9L115.7 45.9L116.2 73.9Z" fill="#32445c" stroke="#32445c"/><path d="M101.9 55.9L103.2 35.9L87.3 59.9Z" fill="#32445c" stroke="#32445c"/><path d="M167.2 93.3L160 48.9L160 71.4Z" fill="#42556a" stroke="#42556a"/><path d="M160 71.4L160 48.9L116.2 73.9Z" fill="#42556a" stroke="#42556a"/><path d="M160 15.9L160 48.9L167.2 93.3Z" fill="#32445c" stroke="#32445c"/><path d="M46.8 893.6L71.6 893.2L70.9 878.6Z" fill="#32445c" stroke="#32445c"/><path d="M126.7 897.1L124.2 894.1L126.2 905.5Z" fill="#42556a" stroke="#42556a"/><path d="M104.1 889.6L124.2 894.1L112.4 875.7Z" fill="#5a6b7d" stroke="#5a6b7d"/><path d="M127.2 883.6L126.7 897.1L136.7 876.6Z" fill="#485a6e" stroke="#485a6e"/><path d="M126.7 897.1L160 891.1L136.7 876.6Z" fill="#374a61" stroke="#374a61"/><path d="M160 866.2L160 891.1L176.2 703.9Z" fill="#42556a" stroke="#42556a"/><path d="M-5.2 858.2L0 885.2L0 870.7Z" fill="#6d7d8b" stroke="#6d7d8b"/><path d="M0 870.7L0 885.2L24.8 879.1Z" fill="#374a61" stroke="#374a61"/><path d="M24.8 879.1L46.8 893.6L59.1 860.7Z" fill="#4e6073" stroke="#4e6073"/><path d="M0 903.1L0 885.2L-22.2 961Z" fill="#4e6073" stroke="#4e6073"/><path d="M43.8 898.6L46.8 893.6L35.6 900.6Z" fill="#4e6073" stroke="#4e6073"/><path d="M71.6 893.2L79.9 897.6L73.7 882.2Z" fill="#32445c" stroke="#32445c"/><path d="M0 43.9L2.8 49.9L29.3 36.4Z" fill="#3d4f65" stroke="#3d4f65"/><path d="M77.7 905.6L79.9 897.6L74.6 906.6Z" fill="#607181" stroke="#607181"/><path d="M126.2 905.5L124.2 894.1L104.1 889.6Z" fill="#374a61" stroke="#374a61"/><path d="M124.2 894.1L126.7 897.1L127.2 883.6Z" fill="#485a6e" stroke="#485a6e"/><path d="M120.7 33.5L103.2 35.9L115.7 45.9Z" fill="#5a6b7d" stroke="#5a6b7d"/><path d="M115.7 45.9L103.2 35.9L101.9 55.9Z" fill="#607181" stroke="#607181"/><path d="M72.6 907.1L74.6 906.6L71.6 893.2Z" fill="#607181" stroke="#607181"/><path d="M79.9 897.6L86.9 909.1L104.1 889.6Z" fill="#677786" stroke="#677786"/><path d="M35.6 900.6L46.8 893.6L24.8 879.1Z" fill="#6d7d8b" stroke="#6d7d8b"/><path d="M122.4 31.9L120.7 33.5L133.2 30.5Z" fill="#6d7d8b" stroke="#6d7d8b"/><path d="M29.3 36.4L78.9 68.9L68.6 29.9Z" fill="#42556a" stroke="#42556a"/><path d="M2.8 49.9L0 43.9L-4.2 72.8Z" fill="#3d4f65" stroke="#3d4f65"/><path d="M78.9 68.9L87.3 59.9L68.6 29.9Z" fill="#374a61" stroke="#374a61"/><path d="M0 903.1L35.6 900.6L24.8 879.1Z" fill="#5a6b7d" stroke="#5a6b7d"/><path d="M74.6 906.6L79.9 897.6L71.6 893.2Z" fill="#546678" stroke="#546678"/><path d="M133.2 30.5L120.7 33.5L115.7 45.9Z" fill="#546678" stroke="#546678"/><path d="M120.7 33.5L114.2 27.4L103.2 35.9Z" fill="#32445c" stroke="#32445c"/><path d="M68.6 29.9L87.3 59.9L103.2 35.9Z" fill="#32445c" stroke="#32445c"/><path d="M71.6 893.2L53.3 907.6L72.6 907.1Z" fill="#607181" stroke="#607181"/><path d="M86.9 909.1L126.2 905.5L104.1 889.6Z" fill="#607181" stroke="#607181"/><path d="M141.4 913.6L160 911.1L160 891.1Z" fill="#374a61" stroke="#374a61"/><path d="M71.6 893.2L46.8 893.6L53.3 907.6Z" fill="#485a6e" stroke="#485a6e"/><path d="M77.7 905.6L86.9 909.1L79.9 897.6Z" fill="#32445c" stroke="#32445c"/><path d="M160 48.9L133.2 30.5L115.7 45.9Z" fill="#485a6e" stroke="#485a6e"/><path d="M65.3 23.5L68.6 29.9L86.4 0Z" fill="#42556a" stroke="#42556a"/><path d="M114.2 27.4L120.7 33.5L122.4 31.9Z" fill="#6d7d8b" stroke="#6d7d8b"/><path d="M53.3 907.6L46.8 893.6L43.8 898.6Z" fill="#6d7d8b" stroke="#6d7d8b"/><path d="M74.6 906.6L75.1 907.6L77.7 905.6Z" fill="#32445c" stroke="#32445c"/><path d="M84.1 940.1L75.1 907.6L69.6 941.5Z" fill="#32445c" stroke="#32445c"/><path d="M72.6 907.1L75.1 907.6L74.6 906.6Z" fill="#5a6b7d" stroke="#5a6b7d"/><path d="M75.1 907.6L86.9 909.1L77.7 905.6Z" fill="#42556a" stroke="#42556a"/><path d="M160 48.9L141.4 29.4L133.2 30.5Z" fill="#485a6e" stroke="#485a6e"/><path d="M126.4 20.5L114.2 27.4L122.4 31.9Z" fill="#3d4f65" stroke="#3d4f65"/><path d="M105.1 19.9L114.2 27.4L126.4 20.5Z" fill="#374a61" stroke="#374a61"/><path d="M45.8 909.1L53.3 907.6L43.8 898.6Z" fill="#374a61" stroke="#374a61"/><path d="M120.9 932.5L124.4 928.1L86.9 909.1Z" fill="#4e6073" stroke="#4e6073"/><path d="M25.3 914.1L45.8 909.1L35.6 900.6Z" fill="#4e6073" stroke="#4e6073"/><path d="M35.6 900.6L45.8 909.1L43.8 898.6Z" fill="#6d7d8b" stroke="#6d7d8b"/><path d="M84.1 940.1L86.9 909.1L75.1 907.6Z" fill="#546678" stroke="#546678"/><path d="M-22.2 961L0 885.2L-5.2 858.2Z" fill="#6d7d8b" stroke="#6d7d8b"/><path d="M0 885.2L0 903.1L24.8 879.1Z" fill="#546678" stroke="#546678"/><path d="M105.1 19.9L68.6 29.9L103.2 35.9Z" fill="#546678" stroke="#546678"/><path d="M68.6 29.9L65.3 23.5L29.3 36.4Z" fill="#3d4f65" stroke="#3d4f65"/><path d="M29.3 36.4L0 32.4L0 43.9Z" fill="#677786" stroke="#677786"/><path d="M105.1 19.9L103.2 35.9L114.2 27.4Z" fill="#5a6b7d" stroke="#5a6b7d"/><path d="M11.8 17.5L0 32.4L29.3 36.4Z" fill="#3d4f65" stroke="#3d4f65"/><path d="M0 43.9L0 32.4L-4.2 72.8Z" fill="#42556a" stroke="#42556a"/><path d="M141.4 913.6L126.7 897.1L126.2 905.5Z" fill="#3d4f65" stroke="#3d4f65"/><path d="M141.4 913.6L160 891.1L126.7 897.1Z" fill="#4e6073" stroke="#4e6073"/><path d="M160 891.1L160 911.1L176.2 703.9Z" fill="#677786" stroke="#677786"/><path d="M141.4 913.6L126.2 905.5L134.7 925.1Z" fill="#677786" stroke="#677786"/><path d="M134.7 925.1L126.2 905.5L124.4 928.1Z" fill="#32445c" stroke="#32445c"/><path d="M126.4 20.5L122.4 31.9L133.2 30.5Z" fill="#5a6b7d" stroke="#5a6b7d"/><path d="M141.4 29.4L126.4 20.5L133.2 30.5Z" fill="#4e6073" stroke="#4e6073"/><path d="M0 903.1L25.3 914.1L35.6 900.6Z" fill="#607181" stroke="#607181"/><path d="M120.9 932.5L86.9 909.1L84.1 940.1Z" fill="#677786" stroke="#677786"/><path d="M-22.2 961L0 912.1L0 903.1Z" fill="#6d7d8b" stroke="#6d7d8b"/><path d="M0 903.1L12.6 918.1L25.3 914.1Z" fill="#677786" stroke="#677786"/><path d="M160 48.9L160 15.9L141.4 29.4Z" fill="#5a6b7d" stroke="#5a6b7d"/><path d="M141.4 29.4L140.2 0L126.4 20.5Z" fill="#677786" stroke="#677786"/><path d="M86.4 0L68.6 29.9L105.1 19.9Z" fill="#6d7d8b" stroke="#6d7d8b"/><path d="M181.2 149.3L160 15.9L167.2 93.3Z" fill="#4e6073" stroke="#4e6073"/><path d="M0 912.1L12.6 918.1L0 903.1Z" fill="#546678" stroke="#546678"/><path d="M124.4 928.1L126.2 905.5L86.9 909.1Z" fill="#677786" stroke="#677786"/><path d="M69.6 941.5L75.1 907.6L72.6 907.1Z" fill="#6d7d8b" stroke="#6d7d8b"/><path d="M141.4 913.6L160 929.6L160 911.1Z" fill="#485a6e" stroke="#485a6e"/><path d="M51.8 4.9L29.3 36.4L65.3 23.5Z" fill="#677786" stroke="#677786"/><path d="M30.6 5.5L11.8 17.5L29.3 36.4Z" fill="#3d4f65" stroke="#3d4f65"/><path d="M51.8 4.9L65.3 23.5L72.1 0Z" fill="#32445c" stroke="#32445c"/><path d="M53.3 907.6L69.6 941.5L72.6 907.1Z" fill="#6d7d8b" stroke="#6d7d8b"/><path d="M53.3 907.6L45.8 909.1L69.6 941.5Z" fill="#546678" stroke="#546678"/><path d="M124.4 928.1L126.7 933.5L134.7 925.1Z" fill="#42556a" stroke="#42556a"/><path d="M148.2 933.6L141.4 913.6L134.7 925.1Z" fill="#546678" stroke="#546678"/><path d="M148.2 933.6L160 929.6L141.4 913.6Z" fill="#6d7d8b" stroke="#6d7d8b"/><path d="M160 911.1L160 929.6L176.2 703.9Z" fill="#5a6b7d" stroke="#5a6b7d"/><path d="M86.4 0L105.1 19.9L90.9 -11.5Z" fill="#607181" stroke="#607181"/><path d="M110.1 953.5L126.7 933.5L120.9 932.5Z" fill="#4e6073" stroke="#4e6073"/><path d="M120.9 932.5L126.7 933.5L124.4 928.1Z" fill="#42556a" stroke="#42556a"/><path d="M51.8 4.9L30.6 5.5L29.3 36.4Z" fill="#32445c" stroke="#32445c"/><path d="M126.7 933.5L148.2 933.6L134.7 925.1Z" fill="#42556a" stroke="#42556a"/><path d="M11.8 17.5L0 10.5L0 32.4Z" fill="#607181" stroke="#607181"/><path d="M0 32.4L-1.4 0L-4.2 72.8Z" fill="#4e6073" stroke="#4e6073"/><path d="M0 0L0 10.5L11.8 17.5Z" fill="#677786" stroke="#677786"/><path d="M51.8 4.9L31.3 0L30.6 5.5Z" fill="#607181" stroke="#607181"/><path d="M126.9 0L105.1 19.9L126.4 20.5Z" fill="#485a6e" stroke="#485a6e"/><path d="M86.4 0L74.7 0L65.3 23.5Z" fill="#607181" stroke="#607181"/><path d="M74.7 0L72.1 0L65.3 23.5Z" fill="#546678" stroke="#546678"/><path d="M140.2 0L126.9 0L126.4 20.5Z" fill="#3d4f65" stroke="#3d4f65"/><path d="M160 15.9L140.2 0L141.4 29.4Z" fill="#485a6e" stroke="#485a6e"/><path d="M19.3 935.6L45.8 909.1L25.3 914.1Z" fill="#3d4f65" stroke="#3d4f65"/><path d="M158.4 952.5L159.2 942.1L148.2 933.6Z" fill="#5a6b7d" stroke="#5a6b7d"/><path d="M181.2 149.3L160 0L160 15.9Z" fill="#5a6b7d" stroke="#5a6b7d"/><path d="M160 15.9L160 0L140.2 0Z" fill="#6d7d8b" stroke="#6d7d8b"/><path d="M70.3 -4.1L31.3 0L51.8 4.9Z" fill="#546678" stroke="#546678"/><path d="M30.6 5.5L27.8 0L11.8 17.5Z" fill="#485a6e" stroke="#485a6e"/><path d="M74.7 0L70.3 -4.1L72.1 0Z" fill="#3d4f65" stroke="#3d4f65"/><path d="M72.1 0L70.3 -4.1L51.8 4.9Z" fill="#546678" stroke="#546678"/><path d="M90.9 -11.5L70.3 -4.1L74.7 0Z" fill="#677786" stroke="#677786"/><path d="M90.9 -11.5L74.7 0L86.4 0Z" fill="#4e6073" stroke="#4e6073"/><path d="M90.9 -11.5L105.1 19.9L126.9 0Z" fill="#4e6073" stroke="#4e6073"/><path d="M95.1 -22.5L126.9 0L140.2 0Z" fill="#485a6e" stroke="#485a6e"/><path d="M95.1 -22.5L27.8 0L31.3 0Z" fill="#32445c" stroke="#32445c"/><path d="M31.3 0L27.8 0L30.6 5.5Z" fill="#374a61" stroke="#374a61"/><path d="M0 941.6L19.3 935.6L12.6 918.1Z" fill="#5a6b7d" stroke="#5a6b7d"/><path d="M12.6 918.1L19.3 935.6L25.3 914.1Z" fill="#4e6073" stroke="#4e6073"/><path d="M19.3 935.6L69.6 941.5L45.8 909.1Z" fill="#6d7d8b" stroke="#6d7d8b"/><path d="M158.4 952.5L148.2 933.6L126.2 961Z" fill="#546678" stroke="#546678"/><path d="M160 0L156.4 -4.1L140.2 0Z" fill="#3d4f65" stroke="#3d4f65"/><path d="M110.1 953.5L120.9 932.5L84.1 940.1Z" fill="#3d4f65" stroke="#3d4f65"/><path d="M148.2 933.6L159.2 942.1L160 929.6Z" fill="#374a61" stroke="#374a61"/><path d="M160 929.6L160 961L176.2 703.9Z" fill="#4e6073" stroke="#4e6073"/><path d="M181.2 149.3L160 -5.5L160 0Z" fill="#42556a" stroke="#42556a"/><path d="M160 0L160 -5.5L156.4 -4.1Z" fill="#607181" stroke="#607181"/><path d="M156.4 -4.1L95.1 -22.5L140.2 0Z" fill="#677786" stroke="#677786"/><path d="M27.8 0L0 0L11.8 17.5Z" fill="#485a6e" stroke="#485a6e"/><path d="M0 10.5L-1.4 0L0 32.4Z" fill="#374a61" stroke="#374a61"/><path d="M95.1 -22.5L0 0L27.8 0Z" fill="#3d4f65" stroke="#3d4f65"/><path d="M95.1 -22.5L-1.4 0L0 0Z" fill="#485a6e" stroke="#485a6e"/><path d="M0 0L-1.4 0L0 10.5Z" fill="#6d7d8b" stroke="#6d7d8b"/><path d="M95.1 -22.5L90.9 -11.5L126.9 0Z" fill="#3d4f65" stroke="#3d4f65"/><path d="M70.3 -4.1L95.1 -22.5L31.3 0Z" fill="#485a6e" stroke="#485a6e"/><path d="M-4.2 953.5L0 941.6L-22.2 961Z" fill="#32445c" stroke="#32445c"/><path d="M0 912.1L0 941.6L12.6 918.1Z" fill="#4e6073" stroke="#4e6073"/><path d="M19.3 935.6L34.1 961L69.6 941.5Z" fill="#677786" stroke="#677786"/><path d="M95.4 961L110.1 953.5L84.1 940.1Z" fill="#677786" stroke="#677786"/><path d="M-4.2 953.5L0 942.5L0 941.6Z" fill="#5a6b7d" stroke="#5a6b7d"/><path d="M0 941.6L14.3 945.5L19.3 935.6Z" fill="#32445c" stroke="#32445c"/><path d="M0 942.5L14.3 945.5L0 941.6Z" fill="#374a61" stroke="#374a61"/><path d="M95.4 961L84.1 940.1L89.7 961Z" fill="#32445c" stroke="#32445c"/><path d="M126.2 961L148.2 933.6L126.7 933.5Z" fill="#5a6b7d" stroke="#5a6b7d"/><path d="M160 -5.5L95.1 -22.5L156.4 -4.1Z" fill="#42556a" stroke="#42556a"/><path d="M90.9 -11.5L95.1 -22.5L70.3 -4.1Z" fill="#4e6073" stroke="#4e6073"/><path d="M89.7 961L84.1 940.1L75.3 961Z" fill="#4e6073" stroke="#4e6073"/><path d="M125.4 961.1L126.2 961L126.7 933.5Z" fill="#374a61" stroke="#374a61"/><path d="M95.4 961L104.9 961L110.1 953.5Z" fill="#485a6e" stroke="#485a6e"/><path d="M75.3 961L84.1 940.1L69.6 941.5Z" fill="#546678" stroke="#546678"/><path d="M34.1 961L19.3 935.6L25.6 961Z" fill="#4e6073" stroke="#4e6073"/><path d="M34.1 961L75.3 961L69.6 941.5Z" fill="#374a61" stroke="#374a61"/><path d="M125.4 961.1L126.7 933.5L110.1 953.5Z" fill="#607181" stroke="#607181"/><path d="M160 980.5L125.4 961.1L104.9 961Z" fill="#32445c" stroke="#32445c"/><path d="M104.9 961L125.4 961.1L110.1 953.5Z" fill="#4e6073" stroke="#4e6073"/><path d="M160 980.5L104.9 961L95.4 961Z" fill="#5a6b7d" stroke="#5a6b7d"/><path d="M160 980.5L95.4 961L89.7 961Z" fill="#3d4f65" stroke="#3d4f65"/><path d="M-22.2 961L0 941.6L0 912.1Z" fill="#374a61" stroke="#374a61"/><path d="M0 942.5L-4.2 953.5L14.3 945.5Z" fill="#5a6b7d" stroke="#5a6b7d"/><path d="M160 980.5L160 961L126.2 961Z" fill="#374a61" stroke="#374a61"/><path d="M126.2 961L160 961L158.4 952.5Z" fill="#546678" stroke="#546678"/><path d="M158.4 952.5L160 961L159.2 942.1Z" fill="#4e6073" stroke="#4e6073"/><path d="M159.2 942.1L160 961L160 929.6Z" fill="#4e6073" stroke="#4e6073"/><path d="M25.6 961L19.3 935.6L14.3 945.5Z" fill="#4e6073" stroke="#4e6073"/><path d="M75.3 961L160 980.5L89.7 961Z" fill="#5a6b7d" stroke="#5a6b7d"/><path d="M0 961L25.6 961L14.3 945.5Z" fill="#3d4f65" stroke="#3d4f65"/><path d="M34.1 961L160 980.5L75.3 961Z" fill="#4e6073" stroke="#4e6073"/><path d="M-4.2 953.5L0 961L14.3 945.5Z" fill="#3d4f65" stroke="#3d4f65"/><path d="M25.6 961L160 980.5L34.1 961Z" fill="#3d4f65" stroke="#3d4f65"/><path d="M-16.2 825.7L-22.2 961L-5.2 858.2Z" fill="#607181" stroke="#607181"/><path d="M-4.2 953.5L-22.2 961L0 961Z" fill="#32445c" stroke="#32445c"/><path d="M0 961L160 980.5L25.6 961Z" fill="#485a6e" stroke="#485a6e"/><path d="M-21.2 698.4L-22.2 961L-19.2 745.4Z" fill="#5a6b7d" stroke="#5a6b7d"/><path d="M-21.2 647L-22.2 961L-21.2 698.4Z" fill="#485a6e" stroke="#485a6e"/><path d="M-22.2 961L160 980.5L0 961Z" fill="#6d7d8b" stroke="#6d7d8b"/><path d="M125.4 961.1L160 980.5L126.2 961Z" fill="#607181" stroke="#607181"/><path d="M160 961L160 980.5L176.2 703.9Z" fill="#5a6b7d" stroke="#5a6b7d"/></g></svg>