<svg xmlns="http://www.w3.org/2000/svg" width="142" height="142" fill="none" viewBox="0 0 142 142"><path fill="#0B100B" d="M49.5008 106C44.3674 106 39.6008 105.133 35.2008 103.4C30.8674 101.6 27.3674 98.9667 24.7008 95.5C22.1008 92.0333 20.7341 87.8667 20.6008 83C20.6008 82.4 20.8008 81.9 21.2008 81.5C21.6008 81.0333 22.1341 80.8 22.8008 80.8H36.3008C37.1674 80.8 37.8341 81.0333 38.3008 81.5C38.8341 81.9667 39.3008 82.6667 39.7008 83.6C40.7674 88.9333 44.2008 91.6 50.0008 91.6C53.3341 91.6 55.9008 90.5 57.7008 88.3C59.5008 86.1 60.4008 82.9333 60.4008 78.8V49.9H28.0008C27.3341 49.9 26.7341 49.6667 26.2008 49.2C25.7341 48.6667 25.5008 48.0667 25.5008 47.4V37.5C25.5008 36.7667 25.7341 36.1667 26.2008 35.7C26.7341 35.2333 27.3341 35 28.0008 35H76.4008C77.1341 35 77.7341 35.2333 78.2008 35.7C78.7341 36.1667 79.0008 36.7667 79.0008 37.5V79.3C79.0008 84.9667 77.7675 89.8 75.3008 93.8C72.8341 97.8 69.3675 100.833 64.9008 102.9C60.4341 104.967 55.3008 106 49.5008 106ZM65.8906 105C65.224 105 64.624 104.767 64.0906 104.3C63.624 103.767 63.3906 103.167 63.3906 102.5V37.5C63.3906 36.7667 63.624 36.1667 64.0906 35.7C64.624 35.2333 65.224 35 65.8906 35H78.4906C79.224 35 79.824 35.2333 80.2906 35.7C80.7573 36.1667 80.9906 36.7667 80.9906 37.5V59.7L99.4906 36.9C100.291 35.6333 101.591 35 103.391 35H117.791C118.391 35 118.891 35.2333 119.291 35.7C119.691 36.1 119.891 36.5667 119.891 37.1C119.891 37.5667 119.791 37.9667 119.591 38.3L95.5906 68.5L121.391 101.7C121.657 101.967 121.791 102.367 121.791 102.9C121.791 103.433 121.591 103.933 121.191 104.4C120.791 104.8 120.291 105 119.691 105H104.791C103.191 105 101.857 104.333 100.791 103L80.9906 78.3V102.5C80.9906 103.233 80.7573 103.833 80.2906 104.3C79.824 104.767 79.224 105 78.4906 105H65.8906Z"/><rect width="34" height="6" x="47" y="100" fill="#0B100B" rx="1"/></svg>